<?xml version="1.0" standalone="no"?>
<!DOCTYPE svg PUBLIC "-//W3C//DTD SVG 20010904//EN"
 "http://www.w3.org/TR/2001/REC-SVG-20010904/DTD/svg10.dtd">
<svg version="1.0" xmlns="http://www.w3.org/2000/svg"
 width="500.000000pt" height="500.000000pt" viewBox="0 0 500.000000 500.000000"
 preserveAspectRatio="xMidYMid meet">

<g transform="translate(0.000000,500.000000) scale(0.100000,-0.100000)"
fill="#000000" stroke="none">
<path d="M0 2500 l0 -2500 2500 0 2500 0 0 2500 0 2500 -2500 0 -2500 0 0
-2500z m2503 2109 c12 -7 175 -107 362 -224 353 -220 689 -430 1150 -716 149
-92 287 -180 308 -194 l37 -26 0 -1067 0 -1067 -58 -33 c-31 -18 -91 -53 -132
-79 -41 -25 -124 -75 -185 -111 -60 -35 -126 -75 -145 -87 -53 -33 -124 -77
-171 -105 -23 -14 -58 -36 -78 -49 -20 -13 -56 -35 -81 -49 -25 -13 -76 -45
-115 -71 -38 -25 -84 -54 -101 -63 -17 -9 -60 -35 -95 -57 -35 -22 -95 -58
-134 -80 -38 -23 -81 -49 -95 -59 -25 -19 -239 -149 -308 -187 -21 -12 -49
-29 -64 -39 -16 -10 -28 -15 -28 -12 0 7 -14 -3 -49 -35 -30 -27 -47 -28 -84
-6 -199 118 -269 160 -447 269 -113 69 -296 181 -408 249 -335 205 -461 282
-582 357 -63 39 -159 97 -212 129 -95 56 -114 73 -83 73 8 0 15 4 15 9 0 5
-10 7 -22 3 -17 -4 -20 -2 -15 11 5 12 1 17 -13 17 -11 0 -20 5 -20 11 0 7 10
9 25 5 20 -5 23 -3 18 10 -4 12 -2 15 8 12 8 -3 13 -13 12 -23 -2 -22 23 -49
37 -40 6 4 4 15 -6 31 -9 13 -13 24 -8 24 4 0 -1 6 -12 14 -17 13 -21 12 -37
-1 -9 -9 -20 -13 -24 -9 -4 4 -1 11 7 16 8 5 11 12 7 17 -5 4 -12 1 -16 -6 -7
-11 -11 -10 -20 5 -8 13 -11 15 -10 4 5 -56 -17 -70 -28 -17 -4 17 -6 36 -5
41 2 5 -3 13 -10 17 -10 7 -10 9 0 9 14 0 16 36 2 45 -6 4 -8 11 -4 16 3 6 7
58 8 116 1 70 5 108 13 110 6 2 14 -1 18 -6 3 -6 1 -11 -4 -11 -16 0 -13 -17
3 -23 9 -4 13 2 13 19 0 17 -6 26 -22 30 l-22 5 0 354 c-1 194 -4 359 -8 365
-4 7 -1 16 6 21 10 6 11 9 2 9 -7 0 -13 5 -13 11 0 5 4 8 10 4 5 -3 7 9 5 30
-4 28 -1 35 13 36 15 1 15 2 -2 6 -15 4 -17 11 -13 39 4 24 2 32 -5 28 -7 -5
-8 -2 -3 7 9 14 8 427 -1 441 -3 4 -1 8 4 8 10 0 7 74 -3 91 -4 5 -2 9 3 9 9
0 7 68 -4 102 -3 10 -2 18 3 18 11 0 10 124 -2 132 -5 4 -7 9 -5 11 5 4 280
176 498 312 71 44 333 208 583 364 250 155 513 319 584 363 72 45 146 91 165
104 40 26 62 29 93 13z m-1862 -3283 c-9 -11 -8 -15 4 -20 15 -5 21 -26 8 -26
-5 0 -21 12 -38 26 -26 22 -27 24 -7 19 15 -4 24 -1 28 10 4 9 9 14 12 11 3
-3 0 -12 -7 -20z"/>
<path d="M2415 4129 c-22 -16 -60 -41 -85 -54 -25 -14 -76 -45 -115 -70 -38
-24 -92 -56 -118 -71 -31 -18 -46 -33 -42 -42 3 -7 5 -297 5 -643 l0 -629 37
32 c21 18 62 56 93 84 30 28 109 98 176 155 237 205 370 322 430 380 l62 59
323 0 c319 0 323 0 294 -18 -16 -11 -75 -63 -130 -118 -55 -54 -122 -119 -150
-143 -27 -25 -91 -83 -140 -130 -50 -47 -135 -126 -189 -176 -54 -49 -110
-102 -124 -117 -14 -16 -29 -28 -33 -28 -4 0 -48 -41 -99 -91 l-91 -90 37 -42
c84 -94 951 -977 1022 -1041 21 -18 23 -17 174 75 84 51 168 100 185 108 29
14 33 20 31 56 -1 22 1 51 6 65 4 14 4 20 -1 13 -10 -13 -8 750 1 766 4 6 4
15 1 21 -3 5 -6 36 -5 67 0 32 0 108 0 168 0 61 0 207 0 325 0 120 -4 221 -9
229 -9 15 -39 34 -196 127 -44 27 -82 51 -85 54 -3 3 -44 29 -92 58 -48 28
-109 66 -135 83 -98 64 -234 149 -443 278 -118 73 -234 146 -257 162 -23 16
-44 29 -46 29 -3 0 -33 18 -65 40 -91 60 -162 100 -175 99 -7 0 -30 -14 -52
-30z"/>
<path d="M1450 3533 c-172 -109 -207 -131 -305 -189 -44 -26 -93 -57 -110 -69
-16 -12 -38 -25 -49 -29 -11 -4 -16 -12 -12 -22 3 -9 6 -392 6 -853 l0 -837
213 -131 c116 -72 255 -157 307 -189 174 -105 553 -335 740 -449 102 -61 194
-118 206 -125 23 -14 -11 -33 479 265 116 70 224 133 240 141 l30 12 -526 525
c-430 429 -528 522 -540 513 -9 -6 -28 -21 -43 -33 l-27 -22 -2 -368 c-1 -271
-5 -367 -14 -366 -6 1 -107 3 -225 3 l-214 1 0 179 c0 173 0 179 20 183 20 4
20 4 1 6 -20 1 -20 8 -20 934 0 925 -1 1007 -14 1007 -3 -1 -67 -39 -141 -87z"/>
<path d="M970 3341 c0 -5 7 -12 16 -15 14 -5 15 -4 4 9 -14 17 -20 19 -20 6z"/>
<path d="M876 3237 c3 -10 9 -15 12 -12 3 3 0 11 -7 18 -10 9 -11 8 -5 -6z"/>
<path d="M670 3220 c0 -5 5 -10 11 -10 5 0 7 5 4 10 -3 6 -8 10 -11 10 -2 0
-4 -4 -4 -10z"/>
<path d="M636 3137 c3 -10 9 -15 12 -12 3 3 0 11 -7 18 -10 9 -11 8 -5 -6z"/>
<path d="M933 3093 c12 -3 16 -11 12 -22 -3 -10 -2 -28 3 -41 7 -19 9 -14 9
23 0 41 -3 47 -21 46 -18 -1 -18 -2 -3 -6z"/>
<path d="M676 3073 c-6 -14 -5 -15 5 -6 7 7 10 15 7 18 -3 3 -9 -2 -12 -12z"/>
<path d="M796 3047 c3 -10 9 -15 12 -12 3 3 0 11 -7 18 -10 9 -11 8 -5 -6z"/>
<path d="M830 3031 c0 -5 7 -12 16 -15 14 -5 15 -4 4 9 -14 17 -20 19 -20 6z"/>
<path d="M939 2975 c-3 -38 3 -90 11 -99 5 -5 8 7 7 28 -1 20 -5 36 -9 36 -5
0 -8 5 -8 11 0 5 5 7 10 4 13 -8 13 5 0 25 -8 13 -10 12 -11 -5z"/>
<path d="M880 2959 c0 -5 5 -7 10 -4 6 3 10 8 10 11 0 2 -4 4 -10 4 -5 0 -10
-5 -10 -11z"/>
<path d="M938 2820 c-3 -17 -1 -30 3 -30 10 0 18 50 9 55 -4 3 -10 -9 -12 -25z"/>
<path d="M611 2814 c0 -11 3 -14 6 -6 3 7 2 16 -1 19 -3 4 -6 -2 -5 -13z"/>
<path d="M943 2773 c-15 -5 -17 -23 -4 -23 5 0 11 7 15 15 3 8 4 15 3 14 -1 0
-8 -3 -14 -6z"/>
<path d="M935 2690 c-3 -5 -1 -10 4 -10 6 0 11 5 11 10 0 6 -2 10 -4 10 -3 0
-8 -4 -11 -10z"/>
<path d="M2190 2691 c0 -6 4 -13 10 -16 6 -3 7 1 4 9 -7 18 -14 21 -14 7z"/>
<path d="M950 2630 c0 -5 -10 -10 -22 -10 -21 -1 -21 -2 -5 -11 9 -5 17 -17
17 -26 0 -9 3 -14 6 -11 7 7 15 68 9 68 -3 0 -5 -4 -5 -10z"/>
<path d="M900 2565 c0 -5 5 -17 10 -25 5 -8 10 -10 10 -5 0 6 -5 17 -10 25 -5
8 -10 11 -10 5z"/>
<path d="M930 2520 c0 -5 5 -10 10 -10 17 0 11 -18 -7 -23 -16 -4 -16 -5 -1
-6 21 -1 30 12 22 33 -7 18 -24 22 -24 6z"/>
<path d="M943 2452 c0 -12 5 -22 9 -22 11 0 10 12 -2 30 -7 12 -9 10 -7 -8z"/>
<path d="M625 2439 c-4 -6 -5 -12 -2 -15 2 -3 7 2 10 11 7 17 1 20 -8 4z"/>
<path d="M815 2390 c3 -5 8 -10 11 -10 2 0 4 5 4 10 0 6 -5 10 -11 10 -5 0 -7
-4 -4 -10z"/>
<path d="M870 2362 c0 -5 7 -9 15 -9 8 0 12 4 9 9 -3 4 -9 8 -15 8 -5 0 -9 -4
-9 -8z"/>
<path d="M936 2347 c3 -10 9 -15 12 -12 3 3 0 11 -7 18 -10 9 -11 8 -5 -6z"/>
<path d="M935 2271 c-3 -5 -1 -12 4 -15 5 -3 11 1 15 9 6 16 -9 21 -19 6z"/>
<path d="M740 2250 c-13 -8 -12 -10 3 -10 9 0 17 5 17 10 0 12 -1 12 -20 0z"/>
<path d="M911 2224 c0 -11 3 -14 6 -6 3 7 2 16 -1 19 -3 4 -6 -2 -5 -13z"/>
<path d="M920 2195 c0 -2 7 -8 15 -15 12 -10 15 -10 15 2 0 8 -7 15 -15 15 -8
0 -15 -1 -15 -2z"/>
<path d="M800 2127 c0 -10 8 -17 18 -17 9 0 13 4 7 8 -5 4 -13 11 -17 16 -5 5
-8 2 -8 -7z"/>
<path d="M755 2119 c-4 -6 -5 -12 -2 -15 2 -3 7 2 10 11 7 17 1 20 -8 4z"/>
<path d="M711 2104 c0 -11 3 -14 6 -6 3 7 2 16 -1 19 -3 4 -6 -2 -5 -13z"/>
<path d="M680 2081 c0 -5 5 -13 10 -16 6 -3 10 -2 10 4 0 5 -4 13 -10 16 -5 3
-10 2 -10 -4z"/>
<path d="M940 2030 c11 -7 12 -14 4 -27 -11 -19 -8 -53 5 -53 4 0 8 20 9 45 0
36 -3 45 -16 45 -15 0 -15 -2 -2 -10z"/>
<path d="M700 1981 c0 -5 7 -11 14 -14 10 -4 13 -1 9 9 -6 15 -23 19 -23 5z"/>
<path d="M867 1963 c-4 -3 -7 -11 -7 -17 0 -6 5 -5 12 2 6 6 9 14 7 17 -3 3
-9 2 -12 -2z"/>
<path d="M915 1949 c-4 -6 -5 -12 -2 -15 2 -3 7 2 10 11 7 17 1 20 -8 4z"/>
<path d="M937 1908 c-2 -18 -1 -37 3 -43 4 -5 10 -19 13 -30 3 -11 4 6 2 38
-4 69 -11 81 -18 35z"/>
<path d="M810 1905 c0 -14 2 -25 4 -25 2 0 6 11 8 25 3 14 1 25 -3 25 -5 0 -9
-11 -9 -25z"/>
<path d="M870 1917 c0 -8 7 -14 15 -14 11 0 12 4 4 14 -6 7 -13 13 -15 13 -2
0 -4 -6 -4 -13z"/>
<path d="M871 1887 c2 -1 14 -11 27 -21 12 -11 22 -16 22 -13 0 10 -31 37 -42
37 -6 0 -9 -1 -7 -3z"/>
<path d="M670 1865 c7 -8 17 -15 22 -15 6 0 5 7 -2 15 -7 8 -17 15 -22 15 -6
0 -5 -7 2 -15z"/>
<path d="M791 1865 c0 -5 6 -19 14 -29 8 -11 15 -15 15 -10 0 6 -7 19 -15 30
-8 10 -14 15 -14 9z"/>
<path d="M770 1840 c0 -5 5 -10 11 -10 5 0 7 5 4 10 -3 6 -8 10 -11 10 -2 0
-4 -4 -4 -10z"/>
<path d="M840 1824 c0 -8 5 -12 10 -9 6 3 10 10 10 16 0 5 -4 9 -10 9 -5 0
-10 -7 -10 -16z"/>
<path d="M925 1830 c-3 -5 -1 -10 4 -10 6 0 11 5 11 10 0 6 -2 10 -4 10 -3 0
-8 -4 -11 -10z"/>
<path d="M870 1812 c0 -11 4 -23 9 -27 6 -3 8 4 6 16 -6 30 -15 37 -15 11z"/>
<path d="M945 1772 c0 -30 -4 -37 -25 -43 -14 -4 -18 -7 -8 -8 9 -1 24 -8 32
-17 15 -14 16 -10 16 40 0 30 -3 57 -7 59 -5 3 -8 -11 -8 -31z"/>
<path d="M634 1780 c0 -9 9 -17 19 -17 14 -2 16 1 8 11 -6 7 -9 15 -6 18 3 2
-1 5 -8 5 -7 0 -13 -8 -13 -17z"/>
<path d="M795 1790 c3 -5 8 -10 11 -10 2 0 4 5 4 10 0 6 -5 10 -11 10 -5 0 -7
-4 -4 -10z"/>
<path d="M908 1775 c-3 -15 -1 -25 6 -25 6 0 11 11 11 25 0 14 -3 25 -6 25 -4
0 -9 -11 -11 -25z"/>
<path d="M732 1765 c0 -16 2 -22 5 -12 2 9 2 23 0 30 -3 6 -5 -1 -5 -18z"/>
<path d="M690 1750 c0 -11 2 -20 4 -20 2 0 6 9 9 20 3 11 1 20 -4 20 -5 0 -9
-9 -9 -20z"/>
<path d="M870 1750 c-8 -5 -11 -12 -7 -16 4 -4 13 -2 19 4 6 6 10 14 7 16 -2
3 -11 1 -19 -4z"/>
<path d="M720 1709 c0 -5 5 -7 10 -4 6 3 10 8 10 11 0 2 -4 4 -10 4 -5 0 -10
-5 -10 -11z"/>
<path d="M875 1710 c-4 -6 -3 -9 2 -8 4 1 19 -4 31 -11 35 -19 36 -8 2 12 -19
11 -31 14 -35 7z"/>
<path d="M931 1656 c-9 -10 -8 -15 3 -19 16 -7 26 1 26 20 0 17 -14 17 -29 -1z"/>
<path d="M650 1650 c0 -5 7 -7 15 -4 8 4 15 8 15 10 0 2 -7 4 -15 4 -8 0 -15
-4 -15 -10z"/>
<path d="M692 1625 c0 -16 2 -22 5 -12 2 9 2 23 0 30 -3 6 -5 -1 -5 -18z"/>
<path d="M745 1640 c3 -5 8 -10 11 -10 2 0 4 5 4 10 0 6 -5 10 -11 10 -5 0 -7
-4 -4 -10z"/>
<path d="M715 1630 c3 -5 8 -10 11 -10 2 0 4 5 4 10 0 6 -5 10 -11 10 -5 0 -7
-4 -4 -10z"/>
<path d="M874 1628 c-4 -7 -3 -8 4 -4 7 4 12 2 12 -3 0 -6 6 -11 14 -11 8 0
18 -5 22 -12 5 -8 0 -9 -14 -6 -12 4 -22 3 -22 -2 0 -4 14 -10 30 -12 17 -3
30 -1 30 3 0 4 3 14 6 23 4 11 0 16 -14 16 -12 0 -24 5 -27 10 -8 14 -32 13
-41 -2z"/>
<path d="M818 1623 c7 -3 16 -2 19 1 4 3 -2 6 -13 5 -11 0 -14 -3 -6 -6z"/>
<path d="M760 1611 c0 -7 -7 -11 -14 -8 -10 4 -13 1 -9 -9 5 -14 7 -14 21 0 9
9 13 19 9 22 -4 4 -7 2 -7 -5z"/>
<path d="M797 1609 c7 -7 15 -10 18 -7 3 3 -2 9 -12 12 -14 6 -15 5 -6 -5z"/>
<path d="M830 1606 c0 -2 7 -6 15 -10 8 -3 15 -1 15 4 0 6 -7 10 -15 10 -8 0
-15 -2 -15 -4z"/>
<path d="M1730 1589 c0 -5 5 -7 10 -4 6 3 10 8 10 11 0 2 -4 4 -10 4 -5 0 -10
-5 -10 -11z"/>
<path d="M1972 1570 c14 -22 24 -19 15 5 -4 8 -11 15 -17 15 -6 0 -6 -7 2 -20z"/>
<path d="M750 1555 c-7 -8 -8 -15 -2 -15 5 0 15 7 22 15 7 8 8 15 2 15 -5 0
-15 -7 -22 -15z"/>
<path d="M915 1550 c-3 -5 -1 -10 4 -10 6 0 11 5 11 10 0 6 -2 10 -4 10 -3 0
-8 -4 -11 -10z"/>
<path d="M940 1548 c0 -9 5 -20 10 -23 13 -8 13 5 0 25 -8 13 -10 13 -10 -2z"/>
<path d="M670 1540 c0 -5 5 -10 10 -10 6 0 10 5 10 10 0 6 -4 10 -10 10 -5 0
-10 -4 -10 -10z"/>
<path d="M765 1523 l-17 -28 23 22 c12 12 20 25 17 28 -3 3 -13 -7 -23 -22z"/>
<path d="M712 1509 c-10 -16 -11 -24 -1 -35 10 -12 14 -12 20 -2 5 7 9 18 9
23 0 6 -4 3 -10 -5 -5 -8 -12 -11 -16 -7 -4 3 -1 13 6 22 7 9 11 17 9 20 -3 2
-10 -5 -17 -16z"/>
<path d="M805 1520 c4 -6 11 -8 16 -5 14 9 11 15 -7 15 -8 0 -12 -5 -9 -10z"/>
<path d="M840 1516 c0 -8 5 -18 10 -21 6 -3 10 3 10 14 0 12 -4 21 -10 21 -5
0 -10 -6 -10 -14z"/>
<path d="M614 1491 c1 -17 26 -28 26 -11 0 6 -4 9 -9 5 -5 -3 -11 0 -14 7 -2
9 -4 8 -3 -1z"/>
<path d="M671 1494 c0 -11 3 -14 6 -6 3 7 2 16 -1 19 -3 4 -6 -2 -5 -13z"/>
<path d="M790 1502 c0 -5 -10 -14 -22 -19 -22 -10 -22 -11 4 -9 20 1 28 6 28
19 0 9 -2 17 -5 17 -3 0 -5 -4 -5 -8z"/>
<path d="M963 1490 c-1 -17 1 -18 17 -8 14 9 16 14 7 20 -18 12 -23 10 -24
-12z"/>
<path d="M1017 1469 c7 -7 15 -10 18 -7 3 3 -2 9 -12 12 -14 6 -15 5 -6 -5z"/>
<path d="M891 1454 c0 -11 3 -14 6 -6 3 7 2 16 -1 19 -3 4 -6 -2 -5 -13z"/>
<path d="M802 1423 c2 -22 9 -38 18 -41 12 -4 13 -2 3 9 -19 19 -16 29 10 30
16 1 18 2 5 6 -21 5 -23 19 -5 26 6 3 2 6 -11 6 -21 1 -23 -3 -20 -36z"/>
<path d="M985 1450 c3 -5 11 -10 16 -10 6 0 7 5 4 10 -3 6 -11 10 -16 10 -6 0
-7 -4 -4 -10z"/>
<path d="M705 1440 c-3 -5 -1 -10 4 -10 6 0 11 5 11 10 0 6 -2 10 -4 10 -3 0
-8 -4 -11 -10z"/>
<path d="M750 1441 c0 -5 7 -12 16 -15 24 -9 27 -7 10 9 -17 17 -26 19 -26 6z"/>
<path d="M1700 1440 c0 -5 5 -10 10 -10 6 0 10 5 10 10 0 6 -4 10 -10 10 -5 0
-10 -4 -10 -10z"/>
<path d="M1828 1443 c7 -3 16 -2 19 1 4 3 -2 6 -13 5 -11 0 -14 -3 -6 -6z"/>
<path d="M660 1430 c0 -5 5 -10 10 -10 6 0 10 5 10 10 0 6 -4 10 -10 10 -5 0
-10 -4 -10 -10z"/>
<path d="M870 1431 c0 -6 4 -13 10 -16 6 -3 7 1 4 9 -7 18 -14 21 -14 7z"/>
<path d="M960 1430 c0 -5 5 -10 11 -10 5 0 7 5 4 10 -3 6 -8 10 -11 10 -2 0
-4 -4 -4 -10z"/>
<path d="M1030 1429 c0 -7 -9 -9 -22 -6 -21 5 -21 5 -6 -7 10 -7 14 -16 10
-20 -4 -4 -2 -7 3 -6 22 5 27 -1 15 -15 -18 -22 -4 -18 25 7 26 23 25 32 -6
48 -14 8 -19 7 -19 -1z m25 -18 c3 -5 1 -12 -4 -15 -5 -3 -11 1 -15 9 -6 16 9
21 19 6z"/>
<path d="M1796 1425 c4 -8 11 -15 16 -15 6 0 5 6 -2 15 -7 8 -14 15 -16 15 -2
0 -1 -7 2 -15z"/>
<path d="M1090 1426 c0 -2 7 -7 16 -10 8 -3 12 -2 9 4 -6 10 -25 14 -25 6z"/>
<path d="M640 1411 c0 -6 4 -13 10 -16 6 -3 7 1 4 9 -7 18 -14 21 -14 7z"/>
<path d="M717 1413 c-13 -13 -7 -33 11 -33 14 0 15 2 2 10 -13 9 -13 11 0 20
8 5 10 10 4 10 -6 0 -14 -3 -17 -7z"/>
<path d="M1730 1410 c8 -5 20 -10 25 -10 6 0 3 5 -5 10 -8 5 -19 10 -25 10 -5
0 -3 -5 5 -10z"/>
<path d="M680 1400 c0 -5 5 -10 10 -10 6 0 10 5 10 10 0 6 -4 10 -10 10 -5 0
-10 -4 -10 -10z"/>
<path d="M753 1376 c0 -17 1 -26 4 -19 2 7 10 10 18 7 10 -4 12 0 8 15 -8 33
-28 31 -30 -3z"/>
<path d="M900 1401 c0 -6 5 -13 10 -16 6 -3 10 1 10 9 0 9 -4 16 -10 16 -5 0
-10 -4 -10 -9z"/>
<path d="M1157 1389 c7 -7 15 -10 18 -7 3 3 -2 9 -12 12 -14 6 -15 5 -6 -5z"/>
<path d="M1110 1385 c0 -5 5 -17 10 -25 5 -8 10 -10 10 -5 0 6 -5 17 -10 25
-5 8 -10 11 -10 5z"/>
<path d="M890 1360 c0 -5 5 -10 10 -10 6 0 10 5 10 10 0 6 -4 10 -10 10 -5 0
-10 -4 -10 -10z"/>
<path d="M1056 1353 c-4 -13 -15 -23 -24 -24 -14 0 -14 -2 -2 -6 8 -3 18 -10
21 -16 4 -5 9 -5 13 2 4 6 1 11 -6 11 -10 0 -10 2 0 9 8 5 12 17 10 27 -4 17
-5 17 -12 -3z"/>
<path d="M797 1328 c-18 -37 -19 -55 -4 -50 4 1 7 -4 7 -12 0 -23 -31 -28 -53
-9 -15 14 -19 15 -15 3 2 -8 20 -24 39 -34 33 -19 33 -19 19 -1 -14 17 -13 18
4 12 17 -7 18 -3 12 45 -5 44 -4 50 7 37 10 -14 14 -14 25 -3 15 16 16 44 1
44 -6 0 -9 -7 -6 -15 4 -8 2 -17 -3 -20 -5 -3 -10 5 -12 17 -3 20 -5 18 -21
-14z"/>
<path d="M1220 1353 c0 -4 14 -16 30 -25 39 -22 39 -15 0 12 -16 12 -30 18
-30 13z"/>
<path d="M865 1340 c-3 -5 1 -10 10 -10 9 0 13 5 10 10 -3 6 -8 10 -10 10 -2
0 -7 -4 -10 -10z"/>
<path d="M1817 1339 c7 -7 15 -10 18 -7 3 3 -2 9 -12 12 -14 6 -15 5 -6 -5z"/>
<path d="M755 1330 c3 -5 10 -10 16 -10 5 0 9 5 9 10 0 6 -7 10 -16 10 -8 0
-12 -4 -9 -10z"/>
<path d="M1998 1333 c6 -2 18 -2 25 0 6 3 1 5 -13 5 -14 0 -19 -2 -12 -5z"/>
<path d="M952 1310 c11 -17 10 -22 -2 -30 -9 -6 -10 -10 -3 -10 6 0 15 5 18
10 8 13 -4 50 -16 50 -5 0 -4 -9 3 -20z"/>
<path d="M980 1320 c0 -5 5 -10 10 -10 6 0 10 5 10 10 0 6 -4 10 -10 10 -5 0
-10 -4 -10 -10z"/>
<path d="M1135 1320 c3 -5 8 -10 11 -10 2 0 4 5 4 10 0 6 -5 10 -11 10 -5 0
-7 -4 -4 -10z"/>
<path d="M1230 1306 c0 -9 5 -16 10 -16 6 0 10 4 10 9 0 6 -4 13 -10 16 -5 3
-10 -1 -10 -9z"/>
<path d="M925 1300 c3 -5 8 -10 11 -10 2 0 4 5 4 10 0 6 -5 10 -11 10 -5 0 -7
-4 -4 -10z"/>
<path d="M1096 1297 c3 -10 9 -15 12 -12 3 3 0 11 -7 18 -10 9 -11 8 -5 -6z"/>
<path d="M1304 1295 c11 -8 24 -15 30 -15 5 0 1 7 -10 15 -10 8 -23 14 -29 14
-5 0 -1 -6 9 -14z"/>
<path d="M845 1289 c-4 -6 -5 -12 -2 -15 2 -3 7 2 10 11 7 17 1 20 -8 4z"/>
<path d="M1131 1284 c0 -11 3 -14 6 -6 3 7 2 16 -1 19 -3 4 -6 -2 -5 -13z"/>
<path d="M1191 1286 c-10 -12 -8 -13 8 -9 12 3 18 9 15 14 -7 12 -10 11 -23
-5z"/>
<path d="M1354 1259 c-4 -7 -3 -9 3 -6 5 3 24 -3 42 -14 18 -11 35 -18 37 -16
2 2 -14 13 -35 25 -29 16 -42 19 -47 11z"/>
<path d="M830 1251 c0 -6 4 -13 10 -16 6 -3 7 1 4 9 -7 18 -14 21 -14 7z"/>
<path d="M855 1250 c3 -5 8 -10 11 -10 2 0 4 5 4 10 0 6 -5 10 -11 10 -5 0 -7
-4 -4 -10z"/>
<path d="M880 1234 c0 -8 4 -13 9 -9 5 3 13 1 16 -5 5 -8 12 -7 23 2 12 10 16
10 19 1 3 -7 12 -13 20 -13 11 0 8 6 -8 19 -13 11 -25 15 -27 10 -5 -12 -32
-12 -32 1 0 6 -4 10 -10 10 -5 0 -10 -7 -10 -16z"/>
<path d="M1190 1240 c0 -5 5 -10 10 -10 6 0 10 5 10 10 0 6 -4 10 -10 10 -5 0
-10 -4 -10 -10z"/>
<path d="M990 1231 c0 -5 7 -12 16 -15 24 -9 27 -7 10 9 -17 17 -26 19 -26 6z"/>
<path d="M1358 1233 c7 -3 16 -2 19 1 4 3 -2 6 -13 5 -11 0 -14 -3 -6 -6z"/>
<path d="M1327 1211 c-4 -17 -3 -21 5 -13 5 5 8 16 6 23 -3 8 -7 3 -11 -10z"/>
<path d="M866 1207 c3 -10 9 -15 12 -12 3 3 0 11 -7 18 -10 9 -11 8 -5 -6z"/>
<path d="M1240 1210 c0 -5 5 -10 10 -10 6 0 10 5 10 10 0 6 -4 10 -10 10 -5 0
-10 -4 -10 -10z"/>
<path d="M815 1200 c3 -5 8 -10 11 -10 2 0 4 5 4 10 0 6 -5 10 -11 10 -5 0 -7
-4 -4 -10z"/>
<path d="M1100 1190 c0 -11 4 -20 8 -20 4 0 8 9 8 20 0 11 -4 20 -8 20 -4 0
-8 -9 -8 -20z"/>
<path d="M1360 1206 c0 -2 7 -7 16 -10 8 -3 12 -2 9 4 -6 10 -25 14 -25 6z"/>
<path d="M1485 1180 c18 -20 18 -21 -1 -14 -23 9 -18 4 20 -20 16 -10 25 -13
21 -6 -5 9 -1 10 16 5 29 -9 25 -4 -24 29 -46 31 -56 33 -32 6z"/>
<path d="M1158 1183 c7 -3 16 -2 19 1 4 3 -2 6 -13 5 -11 0 -14 -3 -6 -6z"/>
<path d="M1437 1179 c7 -7 15 -10 18 -7 3 3 -2 9 -12 12 -14 6 -15 5 -6 -5z"/>
<path d="M919 1171 c11 -7 10 -10 -3 -18 -15 -8 -13 -11 11 -21 25 -11 26 -11
10 2 -12 9 -14 16 -7 21 12 8 4 25 -13 25 -8 0 -7 -3 2 -9z"/>
<path d="M1340 1145 c0 -8 4 -15 10 -15 5 0 7 7 4 15 -4 8 -8 15 -10 15 -2 0
-4 -7 -4 -15z"/>
<path d="M1437 1149 c7 -7 15 -10 18 -7 3 3 -2 9 -12 12 -14 6 -15 5 -6 -5z"/>
<path d="M1036 1133 c-4 -9 -3 -20 1 -24 4 -4 9 3 9 17 2 28 -1 31 -10 7z"/>
<path d="M1292 1135 c-7 -8 -9 -15 -4 -15 5 0 15 7 22 15 16 19 -1 19 -18 0z"/>
<path d="M1405 1140 c3 -5 8 -10 11 -10 2 0 4 5 4 10 0 6 -5 10 -11 10 -5 0
-7 -4 -4 -10z"/>
<path d="M1570 1133 c0 -8 61 -46 66 -41 1 2 -13 13 -32 26 -19 12 -34 19 -34
15z"/>
<path d="M984 1119 c-3 -6 1 -18 10 -27 10 -11 16 -12 16 -4 0 7 -5 12 -11 12
-6 0 -9 7 -5 15 6 17 0 20 -10 4z"/>
<path d="M1200 1118 c0 -5 14 -8 30 -8 17 0 30 4 30 9 0 4 -13 8 -30 7 -16 -1
-30 -4 -30 -8z"/>
<path d="M1061 1104 c0 -11 3 -14 6 -6 3 7 2 16 -1 19 -3 4 -6 -2 -5 -13z"/>
<path d="M1498 1113 c7 -3 16 -2 19 1 4 3 -2 6 -13 5 -11 0 -14 -3 -6 -6z"/>
<path d="M1094 1087 c1 -20 4 -23 14 -15 7 6 9 14 5 17 -4 4 -11 10 -14 14 -4
5 -6 -3 -5 -16z"/>
<path d="M1196 1075 c-9 -26 -7 -32 5 -12 6 10 9 21 6 23 -2 3 -7 -2 -11 -11z"/>
<path d="M1238 1083 c7 -3 16 -2 19 1 4 3 -2 6 -13 5 -11 0 -14 -3 -6 -6z"/>
<path d="M1380 1078 c0 -9 7 -19 16 -22 15 -6 15 -4 3 11 -7 10 -15 20 -16 22
-2 2 -3 -3 -3 -11z"/>
<path d="M1321 1069 c17 -11 39 -12 39 -1 0 4 -12 8 -27 9 -19 1 -22 -1 -12
-8z"/>
<path d="M1441 1064 c0 -11 3 -14 6 -6 3 7 2 16 -1 19 -3 4 -6 -2 -5 -13z"/>
<path d="M1667 1069 c7 -7 15 -10 18 -7 3 3 -2 9 -12 12 -14 6 -15 5 -6 -5z"/>
<path d="M1130 1061 c0 -9 30 -24 36 -18 2 1 -6 8 -16 15 -11 7 -20 8 -20 3z"/>
<path d="M1272 1040 c12 -16 23 -30 25 -30 2 0 -3 14 -12 30 -9 17 -20 30 -26
30 -5 0 0 -13 13 -30z"/>
<path d="M1202 1040 c-12 -10 -18 -21 -13 -24 5 -3 11 1 15 9 3 8 12 15 21 15
8 0 15 5 15 10 0 15 -12 12 -38 -10z"/>
<path d="M1080 1046 c0 -2 7 -9 15 -16 9 -7 15 -8 15 -2 0 5 -7 12 -15 16 -8
3 -15 4 -15 2z"/>
<path d="M1755 1020 c7 -11 65 -43 65 -36 0 2 -16 13 -36 25 -19 12 -32 16
-29 11z"/>
<path d="M1430 1006 c0 -9 5 -16 10 -16 6 0 10 4 10 9 0 6 -4 13 -10 16 -5 3
-10 -1 -10 -9z"/>
<path d="M1556 993 c-6 -14 -5 -15 5 -6 7 7 10 15 7 18 -3 3 -9 -2 -12 -12z"/>
<path d="M1316 984 c-11 -7 -17 -17 -13 -20 3 -4 14 1 23 10 21 22 15 28 -10
10z"/>
<path d="M1190 980 c20 -13 33 -13 25 0 -3 6 -14 10 -23 10 -15 0 -15 -2 -2
-10z"/>
<path d="M1387 973 c-24 -23 27 -47 70 -32 l28 9 -30 -4 c-16 -2 -39 1 -50 6
-19 11 -19 11 0 19 15 5 16 8 4 8 -9 1 -19 -2 -22 -6z"/>
<path d="M1835 970 c6 -8 10 -19 10 -24 0 -5 6 -10 13 -12 7 -1 8 0 2 3 -5 2
-8 8 -5 13 3 4 -3 14 -12 21 -15 12 -16 12 -8 -1z"/>
<path d="M1580 956 c0 -8 4 -17 8 -20 4 -2 8 4 8 15 0 10 -4 19 -8 19 -4 0 -8
-6 -8 -14z"/>
<path d="M1340 949 c0 -5 5 -7 10 -4 6 3 10 8 10 11 0 2 -4 4 -10 4 -5 0 -10
-5 -10 -11z"/>
<path d="M1756 933 c-6 -14 -5 -15 5 -6 7 7 10 15 7 18 -3 3 -9 -2 -12 -12z"/>
<path d="M1880 946 c0 -3 9 -10 20 -16 11 -6 20 -8 20 -6 0 3 -9 10 -20 16
-11 6 -20 8 -20 6z"/>
<path d="M1301 923 c-18 -19 -10 -25 12 -8 10 7 15 15 10 18 -4 3 -14 -2 -22
-10z"/>
<path d="M1343 911 c0 -11 5 -18 9 -15 4 3 5 11 1 19 -7 21 -12 19 -10 -4z"/>
<path d="M1537 919 c7 -7 15 -10 18 -7 3 3 -2 9 -12 12 -14 6 -15 5 -6 -5z"/>
<path d="M1684 919 c-4 -7 -3 -9 4 -5 5 3 13 0 15 -6 4 -9 6 -10 6 -1 1 17
-16 25 -25 12z"/>
<path d="M1860 910 c0 -5 5 -10 11 -10 5 0 7 5 4 10 -3 6 -8 10 -11 10 -2 0
-4 -4 -4 -10z"/>
<path d="M1362 890 c-7 -11 -8 -20 -3 -20 9 0 24 30 18 36 -1 2 -8 -6 -15 -16z"/>
<path d="M1410 900 c0 -5 5 -10 10 -10 6 0 10 5 10 10 0 6 -4 10 -10 10 -5 0
-10 -4 -10 -10z"/>
<path d="M1532 880 c0 -14 2 -19 5 -12 2 6 2 18 0 25 -3 6 -5 1 -5 -13z"/>
<path d="M1920 892 c0 -5 7 -15 15 -22 8 -7 15 -9 15 -6 0 4 -7 14 -15 22 -8
9 -15 11 -15 6z"/>
<path d="M1740 865 c13 -14 25 -25 27 -25 2 0 -4 11 -13 25 -9 14 -21 25 -27
25 -6 0 0 -11 13 -25z"/>
<path d="M1818 883 c6 -2 18 -2 25 0 6 3 1 5 -13 5 -14 0 -19 -2 -12 -5z"/>
<path d="M1560 871 c0 -5 5 -13 10 -16 6 -3 10 -2 10 4 0 5 -4 13 -10 16 -5 3
-10 2 -10 -4z"/>
<path d="M1430 859 c0 -5 9 -9 20 -9 11 0 20 2 20 4 0 2 -9 6 -20 9 -11 3 -20
1 -20 -4z"/>
<path d="M1870 866 c0 -2 9 -6 20 -9 11 -3 18 -1 14 4 -5 9 -34 13 -34 5z"/>
<path d="M1380 856 c0 -2 7 -7 16 -10 8 -3 12 -2 9 4 -6 10 -25 14 -25 6z"/>
<path d="M2026 852 c-3 -5 10 -14 29 -20 19 -5 35 -8 35 -6 0 9 -59 33 -64 26z"/>
<path d="M1540 840 c0 -5 5 -10 11 -10 5 0 7 5 4 10 -3 6 -8 10 -11 10 -2 0
-4 -4 -4 -10z"/>
<path d="M1940 839 c0 -5 5 -7 10 -4 6 3 10 8 10 11 0 2 -4 4 -10 4 -5 0 -10
-5 -10 -11z"/>
<path d="M1836 817 c3 -10 9 -15 12 -12 3 3 0 11 -7 18 -10 9 -11 8 -5 -6z"/>
<path d="M1900 810 c0 -11 4 -20 9 -20 5 0 7 9 4 20 -3 11 -7 20 -9 20 -2 0
-4 -9 -4 -20z"/>
<path d="M1467 799 c7 -7 15 -10 18 -7 3 3 -2 9 -12 12 -14 6 -15 5 -6 -5z"/>
<path d="M1584 780 c0 -13 4 -16 10 -10 7 7 7 13 0 20 -6 6 -10 3 -10 -10z"/>
<path d="M1828 773 c7 -3 16 -2 19 1 4 3 -2 6 -13 5 -11 0 -14 -3 -6 -6z"/>
<path d="M2105 769 c-4 -6 -5 -12 -2 -15 2 -3 7 2 10 11 7 17 1 20 -8 4z"/>
<path d="M2081 734 c0 -11 3 -14 6 -6 3 7 2 16 -1 19 -3 4 -6 -2 -5 -13z"/>
<path d="M1666 725 c-3 -8 -1 -15 4 -15 6 0 10 7 10 15 0 8 -2 15 -4 15 -2 0
-6 -7 -10 -15z"/>
<path d="M1760 730 c0 -5 7 -7 15 -4 8 4 15 8 15 10 0 2 -7 4 -15 4 -8 0 -15
-4 -15 -10z"/>
<path d="M1805 710 c3 -5 11 -10 16 -10 6 0 7 5 4 10 -3 6 -11 10 -16 10 -6 0
-7 -4 -4 -10z"/>
<path d="M1832 620 c0 -14 2 -19 5 -12 2 6 2 18 0 25 -3 6 -5 1 -5 -13z"/>
<path d="M1997 626 c-4 -10 -1 -13 8 -9 8 3 12 9 9 14 -7 12 -11 11 -17 -5z"/>
<path d="M2410 620 c8 -5 20 -10 25 -10 6 0 3 5 -5 10 -8 5 -19 10 -25 10 -5
0 -3 -5 5 -10z"/>
<path d="M1801 597 c2 -1 11 -8 21 -15 12 -10 18 -10 24 -1 4 7 3 9 -4 5 -6
-3 -13 -2 -17 4 -3 5 -11 10 -17 10 -6 0 -9 -1 -7 -3z"/>
<path d="M1967 499 c7 -7 15 -10 18 -7 3 3 -2 9 -12 12 -14 6 -15 5 -6 -5z"/>
<path d="M2290 311 c0 -6 5 -13 10 -16 6 -3 10 1 10 9 0 9 -4 16 -10 16 -5 0
-10 -4 -10 -9z"/>
<path d="M2435 290 c3 -5 8 -10 11 -10 2 0 4 5 4 10 0 6 -5 10 -11 10 -5 0 -7
-4 -4 -10z"/>
</g>
</svg>
