<?xml version="1.0" encoding="UTF-8"?>
<svg id="Livello_1" data-name="Livello 1" xmlns="http://www.w3.org/2000/svg" viewBox="0 0 1500 372.4">
  <defs>
    <style>
      .cls-1 {
        fill: #e26428;
        stroke-width: 0px;
      }
    </style>
  </defs>
  <path class="cls-1" d="m39.23,284.41L166.57,0h40.33s127.34,284.4,127.34,284.4h-59.85s-28.02-62.97-28.02-62.97h-119.28s-28.02,62.97-28.02,62.97h-59.85Zm109.51-111.72h75.57s-37.77-84.1-37.77-84.1l-37.79,84.1Z"/>
  <path class="cls-1" d="m425.49,158.47v125.94s-57.31,0-57.31,0V.01s108.25,0,108.25,0c30.57,0,50.09,8.13,64.95,21.13,16.13,14.63,26.33,35.35,26.33,58.1,0,22.75-10.19,43.47-26.32,58.09-8.06,7.32-17.82,13-29.72,16.66l111.25,130.42h-70.92s-105.7-125.95-105.7-125.95h-20.81Zm47.54-48.76c16.56,0,23.78-3.25,28.87-8.53,5.1-5.29,8.49-13.42,8.49-21.54,0-8.53-3.39-16.65-8.5-21.94-5.09-5.28-12.31-8.93-28.87-8.94h-47.54s0,60.94,0,60.94h47.55Z"/>
  <path class="cls-1" d="m746.1,0c47.11,0,78.09,9.77,102.34,26.82,36.47,26.01,58.97,68.26,58.98,115.38,0,47.14-22.51,89.39-58.98,115.39-24.24,17.06-55.23,26.81-102.34,26.82h-93.44s.01-284.4.01-284.4h93.42Zm82.34,80.44c-16.55-19.89-40.74-31.68-75.98-31.68h-42.46s0,186.89,0,186.89h42.45c35.23,0,59.42-11.79,75.98-31.7,13.61-16.25,21.68-38.18,21.68-61.76,0-23.56-8.08-45.5-21.68-61.76Z"/>
  <path class="cls-1" d="m1011.39,48.76v58.91s91.26,0,91.26,0v48.75s-91.26,0-91.26,0v79.23s125.22,0,125.22,0v48.74s-182.53,0-182.53,0V0s178.3,0,178.3,0v48.75s-120.99,0-120.99,0Z"/>
  <path class="cls-1" d="m1166.32,284.41L1293.66,0h40.32s127.36,284.4,127.36,284.4h-59.85s-28.02-62.97-28.02-62.97h-119.29s-28.01,62.97-28.01,62.97h-59.85Zm109.52-111.73h75.56s-37.77-84.1-37.77-84.1l-37.79,84.1Z"/>
  <g>
    <path class="cls-1" d="m108.79,371.73l17.58-46.46h5.57s17.58,46.46,17.58,46.46h-8.26s-3.87-10.28-3.87-10.28h-16.47s-3.87,10.29-3.87,10.29h-8.26Zm15.12-18.25h10.43s-5.21-13.74-5.21-13.74l-5.22,13.74Z"/>
    <path class="cls-1" d="m157.77,348.5c0,9.03,6.09,15.93,14.01,15.93,3.75,0,6.8-1.46,9.14-3.58v-10.03s-10.55,0-10.55,0v-7.96s18.46,0,18.46,0v20.65c-3.64,5.25-9.73,8.89-17.23,8.89-12.78,0-21.75-10.55-21.76-23.89,0-13.34,8.85-23.9,21.64-23.9,6.09,0,11.31,2.58,15.01,6.64l-5.1,6.11c-2.46-2.8-5.92-4.79-9.97-4.79-7.79,0-13.65,7.11-13.65,15.94Z"/>
    <path class="cls-1" d="m204.97,333.23v9.63s12.61,0,12.61,0v7.97s-12.61,0-12.61,0v12.95s17.3,0,17.3,0v7.96s-25.21,0-25.21,0v-46.46s24.62,0,24.62,0v7.96s-16.71,0-16.71,0Z"/>
    <path class="cls-1" d="m229.32,325.27h5.57s22.86,30.27,22.86,30.27v-30.28s7.92,0,7.92,0v46.47s-5.57,0-5.57,0l-22.86-30.27v30.27s-7.91,0-7.91,0v-46.47Z"/>
    <path class="cls-1" d="m272.72,366.43l19.93-33.2h-18.17s0-7.96,0-7.96h28.72s0,5.29,0,5.29l-19.99,33.21h21.17s0,7.96,0,7.96h-31.66s0-5.3,0-5.3Z"/>
    <path class="cls-1" d="m311.14,325.26h7.91s0,46.47,0,46.47h-7.91s0-46.47,0-46.47Z"/>
    <path class="cls-1" d="m323.75,371.74l17.59-46.46h5.57s17.58,46.46,17.58,46.46h-8.27s-3.87-10.29-3.87-10.29h-16.47s-3.87,10.29-3.87,10.29h-8.27Zm15.12-18.26h10.44s-5.22-13.74-5.22-13.74l-5.22,13.74Z"/>
    <path class="cls-1" d="m402.63,350.83v7.3s-19.35,0-19.35,0v-7.31s19.35,0,19.35,0Z"/>
    <path class="cls-1" d="m421.41,371.74l17.58-46.47h5.58s17.58,46.47,17.58,46.47h-8.26s-3.87-10.28-3.87-10.28h-16.47s-3.87,10.29-3.87,10.29h-8.27Zm15.12-18.26h10.43s-5.22-13.74-5.22-13.74l-5.22,13.74Z"/>
    <path class="cls-1" d="m469.8,367.63c-3.41-3.45-5.28-8.37-5.28-15.47v-26.89s7.91,0,7.91,0v27.54c0,4.25,1,6.85,2.7,8.64,1.76,1.92,4.22,2.98,6.98,2.98,2.75,0,5.21-1.06,6.97-2.98,1.7-1.79,2.7-4.38,2.69-8.63v-27.55s7.91,0,7.91,0v26.89c0,7.1-1.87,12.03-5.28,15.48-3.17,3.18-7.68,4.76-12.3,4.76-4.64,0-9.15-1.58-12.31-4.76Z"/>
    <path class="cls-1" d="m535.17,325.27v7.96s-10.84,0-10.84,0v38.51s-7.92,0-7.92,0v-38.5s-10.84,0-10.84,0v-7.96s29.6,0,29.6,0Z"/>
    <path class="cls-1" d="m558.94,324.61c12.66,0,21.4,10.69,21.4,23.89,0,13.21-8.74,23.89-21.4,23.9-12.67,0-21.39-10.7-21.4-23.9,0-13.2,8.73-23.89,21.4-23.89Zm0,39.83c7.73,0,13.48-7.17,13.48-15.93,0-8.76-5.74-15.94-13.48-15.93-7.74,0-13.48,7.16-13.49,15.93,0,8.76,5.75,15.94,13.49,15.94Z"/>
    <path class="cls-1" d="m587.86,359.32c2.34,2.92,5.93,5.11,9.68,5.12,3.52,0,5.98-2.46,5.98-5.84,0-5.97-7.63-6.7-13.14-10.36-3.22-2.12-5.8-5.31-5.8-10.55,0-8.31,6.74-13.07,13.54-13.07,4.16,0,8.03,1.12,11.91,4.38l-4.1,6.64c-1.64-1.73-4.39-3.06-7.09-3.05-3,0-6.33,1.46-6.34,5.05,0,7.49,18.94,5.17,18.94,20.83,0,8.24-6.51,13.94-13.89,13.94-5.51,0-10.62-2.58-14.84-6.97l5.15-6.11Z"/>
    <path class="cls-1" d="m623.78,348.5c0,9.03,6.11,15.94,14.03,15.94,5.35,0,9.21-2.92,11.62-6.44l5.47,5.51c-3.64,5.24-9.75,8.89-17.26,8.89-12.8,0-21.79-10.54-21.79-23.89,0-13.34,8.86-23.9,21.67-23.9,6.11,0,11.33,2.57,15.04,6.64l-5.11,6.11c-2.46-2.8-5.93-4.78-9.98-4.78-7.81,0-13.68,7.1-13.68,15.93Z"/>
    <path class="cls-1" d="m665.2,367.62c-3.41-3.45-5.28-8.36-5.29-15.47v-26.89s7.93,0,7.93,0v27.55c0,4.25.99,6.85,2.7,8.64,1.76,1.92,4.23,2.98,6.99,2.98,2.75,0,5.22-1.06,6.98-2.98,1.71-1.79,2.7-4.39,2.7-8.64v-27.54s7.91,0,7.91,0v26.89c0,7.11-1.87,12.02-5.27,15.48-3.16,3.18-7.68,4.77-12.31,4.76-4.65,0-9.17-1.58-12.33-4.76Z"/>
    <path class="cls-1" d="m722.99,324.6c12.65,0,21.4,10.69,21.41,23.89,0,13.2-8.75,23.89-21.41,23.89-12.66,0-21.4-10.68-21.4-23.89,0-13.21,8.73-23.9,21.4-23.9Zm0,39.82c7.74,0,13.48-7.17,13.48-15.93,0-8.77-5.74-15.94-13.48-15.94-7.74,0-13.49,7.18-13.48,15.94,0,8.77,5.74,15.92,13.48,15.93Z"/>
    <path class="cls-1" d="m750.89,325.27h7.91s0,38.51,0,38.51h17.31s0,7.95,0,7.95h-25.21s0-46.47,0-46.47Z"/>
    <path class="cls-1" d="m780.2,371.73l17.59-46.46h5.56s17.58,46.47,17.58,46.47h-8.27s-3.86-10.29-3.86-10.29h-16.47s-3.87,10.28-3.87,10.28h-8.27Zm15.12-18.26h10.44s-5.23-13.74-5.23-13.74l-5.22,13.74Z"/>
    <path class="cls-1" d="m859.12,350.82v7.3s-19.36,0-19.36,0v-7.3s19.36,0,19.36,0Z"/>
    <path class="cls-1" d="m883.63,359.32c2.33,2.92,5.92,5.12,9.67,5.11,3.53,0,5.98-2.46,5.98-5.84,0-5.98-7.63-6.7-13.13-10.36-3.22-2.12-5.81-5.32-5.8-10.55,0-8.31,6.74-13.08,13.53-13.08,4.17,0,8.03,1.12,11.91,4.38l-4.12,6.64c-1.62-1.73-4.39-3.05-7.09-3.05-2.98,0-6.33,1.46-6.33,5.05,0,7.49,18.93,5.17,18.92,20.84,0,8.24-6.49,13.94-13.88,13.94-5.52,0-10.61-2.58-14.84-6.97l5.17-6.11Z"/>
    <path class="cls-1" d="m919.52,348.5c0,9.03,6.09,15.93,14.01,15.93,5.33,0,9.2-2.91,11.61-6.43l5.44,5.51c-3.63,5.25-9.73,8.89-17.23,8.89-12.78,0-21.75-10.55-21.74-23.89,0-13.34,8.85-23.9,21.64-23.89,6.09,0,11.31,2.57,15,6.64l-5.11,6.11c-2.45-2.8-5.9-4.78-9.95-4.79-7.8,0-13.65,7.11-13.66,15.94Z"/>
    <path class="cls-1" d="m960.87,367.62c-3.4-3.44-5.28-8.36-5.29-15.47v-26.89s7.91,0,7.91,0v27.55c0,4.25,1,6.85,2.7,8.63,1.76,1.92,4.22,2.98,6.97,2.99,2.76,0,5.22-1.06,6.98-2.99,1.71-1.8,2.69-4.38,2.69-8.63v-27.55s7.92,0,7.92,0v26.89c0,7.11-1.88,12.02-5.29,15.47-3.15,3.19-7.66,4.78-12.3,4.77-4.64,0-9.15-1.59-12.3-4.77Z"/>
    <path class="cls-1" d="m1018.64,324.61c12.65,0,21.38,10.69,21.38,23.9,0,13.2-8.73,23.9-21.38,23.89-12.67,0-21.41-10.69-21.4-23.89,0-13.21,8.73-23.9,21.41-23.9Zm0,39.82c7.73,0,13.47-7.17,13.47-15.93,0-8.76-5.74-15.93-13.48-15.93-7.74,0-13.49,7.17-13.48,15.94,0,8.75,5.74,15.92,13.49,15.92Z"/>
    <path class="cls-1" d="m1046.5,325.27h7.92s0,38.51,0,38.51h17.29s0,7.95,0,7.95h-25.2s0-46.47,0-46.47Z"/>
    <path class="cls-1" d="m1075.83,371.73l17.6-46.46h5.56s17.58,46.46,17.58,46.46h-8.26s-3.87-10.28-3.87-10.28h-16.47s-3.86,10.28-3.86,10.28h-8.27Zm15.11-18.25h10.45s-5.23-13.74-5.23-13.74l-5.22,13.74Z"/>
    <path class="cls-1" d="m1135.95,325.27h5.56s22.86,30.27,22.86,30.27v-30.27s7.91,0,7.91,0v46.47s-5.57,0-5.57,0l-22.86-30.28v30.28s-7.92,0-7.92,0v-46.46Z"/>
    <path class="cls-1" d="m1177,371.73l17.58-46.46h5.57s17.58,46.47,17.58,46.47h-8.26s-3.87-10.29-3.87-10.29h-16.47s-3.87,10.29-3.87,10.29h-8.26Zm15.12-18.26h10.44s-5.21-13.74-5.21-13.74l-5.22,13.74Z"/>
    <path class="cls-1" d="m1225.39,367.63c-3.4-3.44-5.28-8.36-5.28-15.47v-26.89s7.91,0,7.91,0v27.55c0,4.25,1,6.84,2.69,8.64,1.76,1.93,4.23,2.98,6.98,2.98,2.76-.01,5.23-1.07,6.98-2.99,1.71-1.79,2.69-4.38,2.7-8.63v-27.55s7.91,0,7.91,0v26.89c0,7.11-1.87,12.03-5.27,15.48-3.17,3.18-7.68,4.77-12.31,4.77-4.63,0-9.15-1.59-12.3-4.77Z"/>
    <path class="cls-1" d="m1290.77,325.27v7.96s-10.84,0-10.84,0v38.51s-7.91,0-7.91,0v-38.5s-10.86,0-10.86,0v-7.97s29.61,0,29.61,0Z"/>
    <path class="cls-1" d="m1296.96,325.26h7.9s0,46.47,0,46.47h-7.91s0-46.47,0-46.47Z"/>
    <path class="cls-1" d="m1319.22,348.5c0,9.03,6.1,15.93,14.03,15.93,5.33,0,9.2-2.92,11.59-6.44l5.45,5.51c-3.64,5.24-9.73,8.88-17.24,8.89-12.77,0-21.74-10.55-21.74-23.89,0-13.34,8.84-23.89,21.62-23.89,6.09,0,11.32,2.58,15.01,6.63l-5.1,6.11c-2.46-2.8-5.93-4.78-9.97-4.78-7.79,0-13.65,7.1-13.66,15.93Z"/>
    <path class="cls-1" d="m1352.68,371.73l17.58-46.47h5.56s17.59,46.48,17.59,46.48h-8.26s-3.87-10.28-3.87-10.28h-16.47s-3.87,10.28-3.87,10.28h-8.26Zm15.11-18.26h10.44s-5.21-13.74-5.21-13.74l-5.23,13.74Z"/>
  </g>
  <g>
    <polygon class="cls-1" points="80.53 325.27 20.81 325.27 12.41 344.02 72.18 344.02 80.53 325.27"/>
    <polygon class="cls-1" points="0 371.73 59.85 371.74 68.2 352.99 8.39 352.98 0 371.73"/>
  </g>
  <g>
    <polygon class="cls-1" points="1419.47 325.27 1479.19 325.26 1487.58 344.02 1427.82 344.02 1419.47 325.27"/>
    <polygon class="cls-1" points="1500 371.74 1440.15 371.73 1431.8 352.99 1491.61 352.99 1500 371.74"/>
  </g>
</svg>