<svg width="474" height="169" viewBox="0 0 474 169" fill="none" xmlns="http://www.w3.org/2000/svg">
<g clip-path="url(#clip0_7248_264)">
<path d="M40.103 11.0389C40.3992 12.1402 46.7445 17.5623 52.5823 21.5442C59.0546 25.9496 66.8805 30.3974 73.5643 33.1508C85.4937 38.0222 107.914 42.8936 110.875 43.2325C111.341 43.2749 111.933 43.402 112.144 43.1054C112.44 42.7242 111.848 42.5124 111.764 42.47C110.114 41.7499 90.1046 32.6001 78.0061 27.0933C59.2238 18.5366 41.8797 10.6576 41.3298 10.4035C40.6953 10.1069 39.9338 10.4458 40.103 11.0812" fill="#020203"/>
<path d="M64.0033 1.63491C64.2148 2.90571 70.4333 9.64096 76.2287 14.7242C82.701 20.3581 90.5693 26.2037 97.4223 29.9738C109.648 36.7514 133.083 44.6727 136.214 45.3505C136.679 45.4776 137.314 45.6894 137.567 45.3505C137.906 44.9693 137.314 44.6304 137.229 44.588C135.537 43.5714 115.105 31.2022 102.795 23.7045C83.5893 12.0555 65.9069 1.33839 65.3569 0.999511C64.7224 0.61827 63.8764 0.914791 63.961 1.63491" fill="#020203"/>
<path d="M415.791 33.7014C415.791 33.7014 415.284 34.1674 413.888 35.5653C410.8 38.4881 405.046 44.0373 397.686 48.9511C391.256 53.1871 375.435 59.5834 375.054 59.7529C372.22 60.939 370.316 61.7014 369.808 61.9132C369.808 61.9132 369.766 61.9132 369.724 61.9132C369.555 61.998 369.132 62.2098 369.343 62.591C369.555 62.9299 370.189 62.8875 370.697 62.8028C372.135 62.591 377.211 61.6167 380.638 60.8542C380.638 60.8542 392.44 58.4397 397.94 55.4745C403.566 52.467 406.569 49.7559 409.657 46.1129C412.28 43.063 413.761 40.945 416.214 36.709C416.976 35.3959 417.272 34.591 417.23 33.998C417.23 33.2778 416.299 33.1931 415.749 33.7014" fill="#020203"/>
<path d="M373.659 47.7227C373.405 47.5532 373.193 47.6803 372.982 47.9345C372.982 47.9345 369.513 52.0857 364.648 55.6016C359.826 59.1175 357.203 60.0494 355.045 60.9814C353.523 61.6168 352.465 61.998 352.423 62.0404C352.211 62.1674 352 62.3369 352.169 62.6758C352.338 63.057 353.607 62.8452 354.199 62.8028C360.968 61.9556 366.044 59.1599 369.301 56.0252C370.994 54.3732 372.601 51.4927 372.813 51.1115C373.785 49.29 373.955 47.9768 373.701 47.8074" fill="#020203"/>
<path d="M290.026 69.072L292.945 73.4775C294.087 73.1809 297.006 71.9525 297.006 71.9525L290.026 69.072Z" fill="#020203"/>
<path d="M314.688 80.2128C314.604 75.1296 311.77 70.6818 307.539 68.352V68.2672C305.593 62.9299 300.602 59.1175 294.595 59.1175C292.437 59.1175 290.407 59.6258 288.545 60.5577C288.376 60.6424 288.165 60.7272 287.996 60.8542C287.826 60.939 287.699 61.0237 287.53 61.1084C285.796 62.1674 284.315 63.6076 283.173 65.302C282.919 65.7256 283.088 65.8104 283.3 65.6833C289.645 62.3368 295.272 62.2945 298.36 64.4972C299.713 65.4715 300.729 66.6576 301.575 67.8436C301.617 67.9284 301.702 68.0131 301.744 68.0978C303.351 70.47 304.24 72.6303 304.282 72.6727C307.159 73.9435 309.147 76.7393 309.358 79.9586C304.832 78.3489 300.813 79.0691 297.048 80.0433C296.541 80.1704 296.033 80.3822 295.525 80.594C294.003 81.1871 292.395 81.9919 290.745 82.9662C285.711 85.889 280.254 89.9132 276.024 91.1417C271.159 92.5819 266.548 91.1417 260.964 88.5154C242.901 79.9163 227.038 67.3353 209.186 58.3974C194.084 50.8573 178.009 47.5532 161.976 42.8512C146.324 38.2763 133.887 29.9314 123.269 18.7907C120.477 15.8678 112.821 6.54864 112.736 6.42156C112.271 5.91323 111.467 5.91323 111.34 6.50628C111.298 6.76044 111.382 7.2264 111.721 8.11596C112.017 8.87844 112.948 11.1659 113.032 11.293C113.498 12.352 114.005 13.411 114.513 14.4276C114.978 15.3595 117.559 20.0615 117.559 20.0615C122.212 27.8557 128.346 34.5486 136.637 39.2082C148.355 45.7317 162.019 48.1039 174.794 51.8739C193.534 57.3807 209.397 66.6576 225.515 77.4594C236.302 84.703 247.681 91.8194 260.457 95.42C268.156 97.5804 272.978 97.9617 277.505 96.8179C280.043 96.0131 284.104 94.234 289.011 90.591C290.407 89.5744 291.634 88.7272 292.818 88.007C294.468 86.948 295.948 86.1432 297.26 85.5925C300.856 84.0676 303.351 84.1099 306.228 84.3641C306.947 84.4488 307.624 84.5759 308.301 84.7453C308.978 84.9148 309.612 85.1266 310.204 85.3384C311.727 85.9314 312.827 86.5668 313.208 86.7786C313.377 86.4397 313.589 86.1008 313.716 85.7196C314.35 84.1946 314.562 82.7968 314.731 80.9753C314.731 80.7635 314.731 80.3822 314.731 80.1281" fill="#020203"/>
<path d="M433.855 29.5501C433.643 28.9571 432.797 29.0842 432.459 29.6772C432.374 29.8043 428.652 37.3444 423.068 44.7574C418.372 50.942 409.785 57.9737 399.294 61.9132C386.73 66.6575 373.066 67.5471 359.783 67.5047C348.488 67.5047 327.676 66.5728 319.342 66.6999C318.58 66.6999 311.474 66.827 311.474 66.827C311.474 66.827 311.474 66.827 311.516 66.8693C315.789 70.0887 317.481 74.1129 317.481 74.1129C319.469 74.1129 342.524 74.4518 349.292 74.2823C371.628 73.7317 395.317 74.0705 415.369 59.4563C429.032 49.5017 431.401 40.1825 432.84 35.3535C432.84 35.2264 433.601 32.3035 433.77 31.2022C433.897 30.2702 433.939 29.7619 433.855 29.5501Z" fill="#020203"/>
<path d="M30.585 147.608C29.5698 141.296 24.705 135.45 18.4019 135.45C10.1106 135.45 7.40326 143.668 7.40326 150.276C7.40326 158.791 12.0565 165.102 21.067 165.102C27.5816 165.102 31.4734 160.866 33.9693 157.139L35.196 158.41C31.2619 165.018 25.5087 168.788 17.7674 168.788C7.48786 168.788 -0.0419922 161.798 -0.0419922 150.954C-0.0419922 140.11 7.69937 133.121 18.7403 133.121C20.644 133.121 23.4782 133.587 25.9318 134.053C28.4276 134.518 30.4581 134.984 30.8389 134.984C31.135 134.984 31.2619 134.984 31.3888 134.942C31.3888 136.298 31.3042 137.568 31.3042 138.924C31.3042 141.804 31.5157 144.727 31.8541 147.565H30.585V147.608Z" fill="#020203"/>
<path d="M61.0002 151.378L56.7699 139.305H56.6853L52.2012 151.378H61.0425H61.0002ZM39.6797 166.797C43.5715 166.373 44.4176 164.425 45.8136 161.163L55.9239 137.568L54.9932 135.111C57.1506 134.688 59.3927 134.137 61.3386 133.248L72.5488 163.662C73.3948 165.865 75.7638 166.797 77.8789 166.797V168.025C75.2138 167.856 71.1951 167.813 68.53 167.813C65.6535 167.813 62.7346 167.856 59.9003 168.025V166.797C63.4537 166.543 65.1458 165.695 65.1458 163.916C65.1458 162.603 63.9613 159.934 63.4537 158.494L61.7193 153.369H51.4398L48.817 160.655C48.5209 161.586 47.971 162.434 47.971 163.747C47.971 165.441 50.636 166.5 52.4974 166.797V168.025C50.2976 167.856 48.0556 167.813 45.8559 167.813C43.783 167.813 41.7102 167.856 39.6797 168.025V166.797Z" fill="#020203"/>
<path d="M77.667 145.363C79.6129 143.583 80.1628 142.567 80.1628 140.152C80.1628 138.924 79.2322 137.06 79.2322 135.493C79.2322 133.121 80.3321 131.807 82.4895 131.807C84.6469 131.807 85.7468 133.586 85.7468 135.874C85.7468 140.279 82.278 143.88 78.4284 146.04L77.7093 145.32L77.667 145.363Z" fill="#020203"/>
<path d="M118.574 163.789C118.574 165.738 122.085 166.373 126.104 166.373C134.268 166.373 139.471 161.586 139.471 151.547C139.471 142.355 133.972 135.577 124.623 135.577C122.55 135.577 120.562 135.874 118.574 136.425V163.789ZM106.222 166.585C111.213 166.161 111.636 165.145 111.636 160.485V141.127C111.636 136.467 111.213 135.45 106.095 135.027V133.798C108.252 134.01 110.494 134.264 112.652 134.264C116.924 134.264 121.154 133.756 127.5 133.756C136.891 133.756 146.832 140.068 146.832 152.14C146.832 163.323 138.372 168.279 128.684 168.279C123.016 168.279 121.112 167.856 114.598 167.856C111.002 167.856 108.337 167.94 106.179 168.068V166.627L106.222 166.585Z" fill="#020203"/>
<path d="M155.674 166.754C160.327 166.543 161.046 164.975 161.046 160.866V141.211C161.046 137.357 160.327 135.535 155.674 135.323V133.883C159.185 134.01 162.738 134.18 166.249 134.18C172.849 134.18 179.532 134.01 186.343 133.883C186.301 135.111 186.301 136.382 186.301 137.568C186.301 139.686 186.301 141.847 186.724 143.584L185.582 143.795C183.932 138.585 180.632 135.874 173.779 135.874H167.984V148.455H170.649C174.245 148.455 177.713 146.803 178.856 141.974H179.871C179.829 144.388 179.659 146.888 179.659 149.302C179.659 151.717 179.829 154.216 179.871 156.673H178.856C177.713 151.632 174.71 149.98 170.649 149.98H167.984V165.314C169.634 165.78 171.664 166.034 174.118 166.034C180.802 166.034 186.385 162.9 190.15 156.164L191.123 156.885C189.431 160.485 187.824 164.17 186.639 167.983C181.309 167.813 176.021 167.771 170.649 167.771C164.007 167.771 158.339 167.813 155.674 167.983V166.754Z" fill="#020203"/>
<path d="M198.06 133.925C201.191 134.095 204.321 134.222 207.451 134.222C210.582 134.222 213.374 134.052 216.377 133.925V135.154C211.639 135.323 210.497 136.763 210.497 140.83V162.73C210.497 165.399 212.02 166.543 216.208 166.754L216.123 167.983C213.12 167.813 210.159 167.771 207.155 167.771C204.152 167.771 200.979 167.813 197.849 167.983V166.754C202.037 166.543 203.559 165.399 203.559 162.73V140.83C203.559 136.763 202.333 135.281 198.06 135.154V133.925Z" fill="#020203"/>
<path d="M256.269 148.413H258.934C262.53 148.413 265.999 146.761 267.141 141.974H268.156C268.114 144.388 267.945 146.888 267.945 149.302C267.945 151.717 268.114 154.216 268.156 156.673H267.141C265.999 151.59 264.01 149.938 258.934 149.938H256.269V161.883C256.269 165.23 257.115 166.5 262.361 166.543V167.983C259.103 167.898 255.804 167.771 252.546 167.771C249.712 167.771 246.836 167.856 243.959 167.983V166.543C248.485 166.5 249.331 165.23 249.331 161.883V141.211C249.331 137.314 248.612 135.535 243.959 135.323V133.883C247.47 133.968 251.024 134.18 254.535 134.18C261.134 134.18 267.818 134.01 274.417 133.883C274.375 135.111 274.375 136.34 274.375 137.568C274.375 139.686 274.375 141.847 274.671 143.965H273.655C272.175 138.119 268.748 135.832 262.064 135.832H256.269V148.37V148.413Z" fill="#020203"/>
<path d="M299.798 151.378L295.568 139.305H295.483L290.999 151.378H299.84H299.798ZM278.478 166.797C282.327 166.373 283.215 164.425 284.611 161.163L294.722 137.568L293.791 135.111C295.948 134.688 298.191 134.137 300.136 133.248L311.347 163.662C312.193 165.865 314.562 166.797 316.677 166.797V168.025C314.012 167.856 309.993 167.813 307.328 167.813C304.451 167.813 301.532 167.856 298.698 168.025V166.797C302.252 166.543 303.944 165.695 303.944 163.916C303.944 162.603 302.759 159.934 302.252 158.494L300.517 153.369H290.238L287.615 160.655C287.319 161.586 286.769 162.434 286.769 163.747C286.769 165.441 289.434 166.5 291.295 166.797V168.025C289.095 167.856 286.853 167.813 284.654 167.813C282.581 167.813 280.508 167.856 278.478 168.025V166.797Z" fill="#020203"/>
<path d="M328.268 140.152C328.268 136.34 326.152 135.62 322.895 135.154V133.925C325.983 134.137 329.156 134.222 332.244 134.222C335.332 134.222 338.589 134.137 341.804 133.925V135.154C338.674 135.62 335.205 136.34 335.205 140.152V165.695C336.178 165.949 338.039 166.077 339.985 166.077C347.6 166.077 351.322 163.027 354.791 156.376L356.103 156.927C354.326 160.485 352.972 164.213 352.042 168.025C347.304 167.898 342.481 167.813 337.743 167.813C333.005 167.813 327.802 167.898 322.811 168.025V166.797C325.603 166.797 328.268 166.415 328.268 163.111V140.152Z" fill="#020203"/>
<path d="M394.429 147.608C393.414 141.296 388.549 135.45 382.246 135.45C373.954 135.45 371.247 143.668 371.247 150.276C371.247 158.791 375.9 165.102 384.911 165.102C391.425 165.102 395.317 160.866 397.813 157.139L399.04 158.41C395.106 165.018 389.352 168.788 381.611 168.788C371.332 168.788 363.802 161.798 363.802 150.954C363.802 140.11 371.543 133.121 382.584 133.121C384.488 133.121 387.322 133.587 389.776 134.053C392.271 134.518 394.302 134.984 394.683 134.984C394.979 134.984 395.106 134.984 395.233 134.942C395.233 136.298 395.148 137.568 395.148 138.924C395.148 141.804 395.359 144.727 395.698 147.565H394.429V147.608Z" fill="#020203"/>
<path d="M405.724 166.754C409.869 166.543 411.096 165.949 411.096 161.713V141.55C411.096 136.636 410.673 135.747 405.851 135.154V133.925C408.812 134.137 411.773 134.222 414.776 134.222C417.78 134.222 420.699 134.137 423.66 133.925V135.154C418.499 135.789 418.034 136.636 418.034 141.55V148.37H435.166V141.55C435.166 136.636 434.743 135.747 429.582 135.154V133.925C432.628 134.137 435.632 134.222 438.677 134.222C441.723 134.222 444.6 134.137 447.561 133.925V135.154C442.527 135.789 442.104 136.636 442.104 141.55V161.713C442.104 165.949 443.331 166.585 447.561 166.754V167.983C444.6 167.813 441.596 167.771 438.635 167.771C435.674 167.771 432.713 167.813 429.751 167.983V166.754C433.897 166.543 435.166 165.949 435.166 161.713V150.53H418.034V161.713C418.034 165.949 419.345 166.585 423.491 166.754V167.983C420.487 167.898 417.441 167.771 414.438 167.771C411.434 167.771 408.6 167.898 405.724 167.983V166.754Z" fill="#020203"/>
<path d="M455.683 133.925C458.814 134.095 461.944 134.222 465.074 134.222C468.205 134.222 470.997 134.052 474 133.925V135.154C469.262 135.323 468.12 136.763 468.12 140.83V162.73C468.12 165.399 469.643 166.543 473.831 166.754L473.746 167.983C470.743 167.813 467.782 167.771 464.778 167.771C461.775 167.771 458.602 167.813 455.472 167.983V166.754C459.66 166.543 461.183 165.399 461.183 162.73V140.83C461.183 136.763 459.956 135.281 455.683 135.154V133.925Z" fill="#020203"/>
</g>
<defs>
<clipPath id="clip0_7248_264">
<rect width="474" height="168" fill="white" transform="translate(0 0.830078)"/>
</clipPath>
</defs>
</svg>
