<svg xmlns="http://www.w3.org/2000/svg" xmlns:xlink="http://www.w3.org/1999/xlink" xmlns:inkscape="http://www.inkscape.org/namespaces/inkscape" version="1.1" width="231.99951" height="89.333209" viewBox="0 0 231.99951 89.333209">
<defs>
<clipPath id="clip_1">
<path transform="matrix(1,0,0,-1,-95.3335,139.798)" d="M95.3335 50.4648H327.333V139.798H95.3335Z" clip-rule="evenodd"/>
</clipPath>
<clipPath id="clip_2">
<path transform="matrix(1,0,0,-1,-95.3335,139.798)" d="M0 283.465H425.197V0H0Z"/>
</clipPath>
<clipPath id="clip_3">
<path transform="matrix(1,0,0,-1,-95.3335,139.798)" d="M0 283.465H425.197V0H0Z"/>
</clipPath>
</defs>
<g clip-path="url(#clip_1)">
<g inkscape:groupmode="layer" inkscape:label="Livello 1">
<path transform="matrix(1,0,0,-1,-95.3335,139.798)" d="M177.933 170.184H107.067V241.051H177.933Z" fill="#808285"/>
<path transform="matrix(1,0,0,-1,82.5503,-33.9364)" d="M0 0 1.496-2.316 1.4-3.09 .821-3.167 .386-3.051-.193-2.703-.627-2.047-.772-1.854-1.737-1.583-1.882-1.197-2.702-.463-4.102-.115H-4.777L-5.549 .154-5.598 .271-5.984 .387-6.659 .85-7.335 1.043-7.721 1.275-7.962 1.391-8.155 1.661-8.638 1.971-8.831 2.163-9.12 2.666-9.748 3.939-10.423 4.751-10.568 5.408-10.906 5.832-11.389 6.682-11.437 7.223-12.354 8.652-12.981 10.158-13.078 11.471-13.415 11.974-13.753 15.025H-13.801L-13.994 15.334V15.875L-14.284 17.458-15.683 16.531-15.828 16.415-15.973 15.913-16.069 15.643-17.807 12.669-18.724 11.588H-18.965L-19.062 11.51-19.737 10.158-20.895 9.038-21.233 8.305-21.764 8.034-22.15 7.609-22.584 7.184-22.874 6.644-23.742 6.18-23.887 6.025-23.935 5.794V5.563H-24.177L-24.997 5.061-25.238 4.674-25.576 4.441-26.927 3.631-28.182 3.283-29.195 2.434-30.691 1.623-30.933 1.777-31.125 1.699-32.718 2.047-33.056 2.009-33.104 2.201H-33.249L-33.876 3.013-34.262 4.365-33.973 5.91-34.118 7.301-33.635 9-33.104 9.386-33.152 9.733H-33.345L-33.056 11.703-32.766 11.896-32.814 12.012-32.429 12.283-32.284 12.476-32.622 13.209-32.525 13.325-32.284 13.866-31.319 15.913-31.463 16.377-31.174 16.57-29.919 19.891-29.678 20.471-29.533 20.741-29.292 21.127-29.147 21.243V21.591L-28.906 21.861-28.616 22.557-27.94 23.328-27.893 23.908-27.603 24.295-27.506 24.797-26.203 27.229-26.01 27.848-25.769 28.156-25.625 28.736-25.479 28.891-25.238 29.238-24.514 30.783-24.756 31.131-25.093 31.362-25.528 31.324-26.445 29.934-26.782 29.045-28.761 26.998-29.099 26.457-29.195 26.109-29.919 25.145-30.016 24.951-30.402 24.487-30.788 24.449-30.595 24.256-32.573 21.977-33.249 21.012-33.587 20.973-34.021 20.548-35.903 17.998-36.579 16.686-38.46 14.754-38.509 14.678-38.992 14.176-39.185 13.789V13.711L-41.018 11.703-41.26 11.857-41.597 11.818-41.501 11.664H-41.356L-41.453 11.278-41.742 10.814-41.887 10.545-42.418 10.352-42.755 10.119-42.9 9.926-43.045 9.502-45.023 6.991-44.927 6.836-46.52 5.601-46.665 5.176-47.533 4.52-47.967 4.48-48.208 4.365-48.595 3.322-48.98 3.129-49.077 2.896-49.463 2.318-50.139 1.971-50.091 1.699-50.38 1.468-50.67 1.121-52.311-.386H-52.503L-52.648-.656-53.034-1.119-53.324-.965-53.469-1.004-53.807-1.738-53.951-1.931H-54.241L-54.53-2.008-54.723-2.201-55.013-2.472-55.447-2.703-56.798-3.244H-56.991L-57.426-3.398-57.57-3.438-57.86-3.321-57.957-3.129-58.198-2.742-58.246-2.472-57.764-2.162-57.57-1.699-57.329-.771-56.943-.579-56.75-.115-56.123 .541-54.289 4.133-53.854 4.674-53.613 4.982-53.131 5.253-52.214 7.339-48.98 11.742-49.029 12.166-47.147 15.102H-46.954V15.449L-46.616 15.527-46.712 15.759-46.037 16.994H-45.796L-42.563 21.9-41.839 22.826-41.646 23.059-40.97 24.295-40.874 24.604-40.681 25.028-40.391 26.188-39.426 26.611-39.233 27.577-38.992 27.887-38.654 28.428-38.46 28.658-38.026 29.393-36.965 31.285-37.109 31.4-36.917 31.71-35.758 33.912-35.903 34.066-35.083 35.418-34.697 35.727-34.89 35.92-33.49 40.4V40.709L-33.394 40.864-33.49 41.945-33.394 42.293-33.49 42.756-33.297 43.065-34.118 44.919-35.083 45.614-36.096 45.769-37.737 45.653-38.509 45.035H-38.992L-39.233 44.958-39.522 44.803-40.536 44.494-40.632 44.34-41.066 43.992-41.549 43.76-41.935 43.645-42.611 43.258-42.755 43.065-43.286 42.679-46.278 40.979-46.809 40.748-47.195 40.555-47.581 40.4-47.726 40.014-48.836 39.705-50.332 38.624-50.428 38.353-50.863 38.006-51.442 37.503-51.731 37.349-53.613 36.074-53.854 35.92-53.951 35.766-54.82 35.302V34.993L-55.109 34.8-56.702 33.912-56.75 33.796-56.991 33.332-57.57 32.946-58.101 32.443-58.68 31.941-59.066 31.518-59.694 31.246-60.225 30.396-60.611 30.32V29.973 29.74L-61.093 29.354-62.3 28.891-62.444 28.968-64.857 26.418-65.967 24.99-66.595 23.754-66.836 23.715-67.463 23.059-67.608 22.942-67.946 22.595-68.284 21.436-69.104 20.316-69.2 19.313-69.442 18.849-69.538 18.693-69.924 18.385-70.358 17.844-70.407 17.651-70.841 17.42-70.6 15.063-70.986 12.553-71.372 12.438-71.469 12.669-72.337 12.978-72.53 13.402-72.771 13.596-73.254 14.832-73.351 15.025-73.543 15.141-73.833 15.295-74.605 16.184-74.75 17.342-74.219 17.458-74.026 17.651-74.509 17.883-73.881 19.196-71.131 23.02-70.6 23.367-70.503 23.676-69.731 24.256-68.525 25.646-68.477 25.685-67.946 26.148-67.608 26.535-65.919 28.774-65.05 29.47-64.712 29.817-64.133 30.358-63.892 30.551-63.072 31.518-57.812 35.92-57.522 36.074-57.426 36.229-57.136 36.46-57.04 36.692-56.702 36.808-56.123 37.194-54.386 38.392-53.324 39.551-51.731 40.4-51.249 40.67-50.718 40.979-50.139 41.443-49.705 41.675-49.222 41.984-45.506 44.263-45.12 44.378-44.348 44.842-43.093 45.46H-42.804L-42.321 45.692-42.176 45.808H-41.983L-41.887 45.962-37.688 47.7-37.64 47.816-37.158 47.893-37.254 47.7H-37.013L-37.109 48.009-36.82 48.086-36.53 48.125-36.337 48.202-35.758 48.434-33.008 49.168-31.174 48.975-30.064 48.511-29.967 48.396H-29.823V48.125L-29.629 48.048H-29.244L-28.906 47.623-28.472 47.507-28.423 47.159-28.037 46.928-27.699 45.962-27.458 45.46V45.267L-27.168 44.031-28.037 41.289-28.278 40.902-28.472 40.864-28.327 40.168-28.375 39.859-28.616 39.589-29.05 39.319-28.954 38.739-29.967 36.654-30.161 35.843-30.257 35.727-30.402 35.534-31.125 34.684-31.801 33.139-33.539 30.898-33.78 29.973-34.793 28.35-35.324 27.809-35.71 26.959-36 26.418-36.048 26.264-36.724 25.53-37.399 24.217-38.847 22.286-39.04 21.977-39.377 21.783V21.475L-43.286 15.604-43.576 15.373-43.865 14.832-44.3 14.252-44.782 13.75-44.927 13.441-47.919 9-48.208 8.42V8.305 8.188L-47.823 7.764-46.712 8.498-45.023 10.545-40.777 15.141-40.584 15.488-40.343 15.721-40.294 15.875-40.198 15.913-36.434 20.432-36.289 20.548-36 20.741-34.456 22.286-33.152 24.102-32.911 24.295-32.766 24.643-32.187 25.299-31.85 25.568-31.753 25.762-29.774 28.311-29.582 28.35-29.388 28.466-29.292 28.736-28.954 28.891-24.659 33.68-24.418 33.796-24.032 33.873-22.825 35.147-22.294 35.495-22.005 35.688-20.943 36.113-20.268 36.615-19.93 36.731-19.496 36.963-19.109 37.117-18.675 37.581-18 37.658-17.373 38.006-17.131 38.16H-16.89L-16.6 38.122-16.359 37.967-16.262 37.774V37.735L-16.311 36.731-16.793 35.843-17.035 35.109-17.179 34.646-17.373 34.375-18.337 32.715-18.675 32.367-18.724 32.212-18.772 31.98-18.82 31.633-19.062 31.17-22.439 25.414-22.536 25.299-22.729 24.835-22.922 24.217-23.115 23.947-23.26 23.676-24.273 21.397-24.756 20.741-24.852 20.394-25.238 19.969-25.287 19.853V19.698L-25.238 19.543-25.335 19.351-25.576 19.041-25.672 18.385-26.059 17.806-26.251 17.458-26.445 16.84-26.3 16.377-26.831 14.214-27.603 12.244-27.844 12.09V11.626L-27.94 9.502V8.961L-28.085 8.768-27.989 6.798-27.699 6.025-27.217 5.639-27.024 5.601-26.493 5.563-26.107 5.832-25.866 6.064-25.817 6.219-23.694 8.266-22.729 8.922-22.536 9.502-22.005 10.004-21.474 10.545-20.943 10.738-21.088 11.008-20.895 11.549-20.654 12.476-19.399 13.133-19.688 13.287-19.737 13.519-18.965 14.176-17.614 16.338-16.745 19.08-16.504 19.389-15.973 21.05-15.056 22.016-14.332 23.328-14.139 23.445-14.042 23.521-13.946 23.6H-13.753-13.56L-12.305 24.102-10.085 25.568-8.686 25.762-8.542 25.724-7.769 25.221V25.066L-7.625 24.758V19.273L-7.287 18.037-7.045 15.604-6.466 13.171-6.418 13.133-6.321 12.978-6.466 12.669-6.37 12.438-6.128 11.896-5.887 11.471-4.97 7.918-4.343 7.184-3.667 5.137-2.702 3.477-1.737 2.356-1.689 1.815-1.447 1.777-1.351 1.043-1.013 .773-.482 .348-.29 .232Z" fill="#ffffff"/>
<g clip-path="url(#clip_2)">
<text fill="#231f20" xml:space="preserve" transform="matrix(1.0130993 0 -0 .9870702 -95.3335 139.798)" font-size="17.23069" font-family="Humnst777 Blk BT"><tspan y="-187.5124" x="180.47916 193.31603 206.5492 217.9559 231.18907 245.33548 257.72434 270.95753 285.2762 299.47428">CASAGRANDE</tspan></text>
<text fill="#231f20" xml:space="preserve" transform="matrix(1.0130992 0 -0 .98707017 -95.3335 139.798)" font-size="11.487127" font-family="Humnst777 Lt BT"><tspan y="-176.02497" x="180.47919 188.39382 195.3665 201.4432 208.36994 214.125 217.24948 223.49849 227.74874 234.7444 237.86888 242.11914 248.36814 253.36502 258.3619 261.48643 267.10365 274.0304 278.37254 284.62153 290.3766 293.5011 300.42784 307.35459">Agenzia di assicurazioni</tspan></text>
</g>
<path transform="matrix(1,0,0,-1,-95.3335,139.798)" d="M177.933 60.184H107.067V131.051H177.933Z" fill="#808285"/>
<path transform="matrix(1,0,0,-1,82.5503,76.0636)" d="M0 0 1.496-2.316 1.4-3.09 .821-3.166 .386-3.051-.193-2.703-.627-2.047-.772-1.854-1.737-1.582-1.882-1.197-2.702-.463-4.102-.115H-4.777L-5.549 .154-5.598 .271-5.984 .387-6.659 .85-7.335 1.043-7.721 1.275-7.962 1.391-8.155 1.662-8.638 1.971-8.831 2.164-9.12 2.666-9.748 3.939-10.423 4.752-10.568 5.408-10.906 5.832-11.389 6.682-11.437 7.223-12.354 8.652-12.981 10.158-13.078 11.471-13.415 11.975-13.753 15.025H-13.801L-13.994 15.334V15.875L-14.284 17.459-15.683 16.531-15.828 16.416-15.973 15.914-16.069 15.643-17.807 12.67-18.724 11.588H-18.965L-19.062 11.51-19.737 10.158-20.895 9.039-21.233 8.305-21.764 8.035-22.15 7.609-22.584 7.184-22.874 6.645-23.742 6.18-23.887 6.025-23.935 5.795V5.563H-24.177L-24.997 5.061-25.238 4.674-25.576 4.441-26.927 3.631-28.182 3.283-29.195 2.434-30.691 1.623-30.933 1.777-31.125 1.699-32.718 2.047-33.056 2.01-33.104 2.201H-33.249L-33.876 3.014-34.262 4.365-33.973 5.91-34.118 7.301-33.635 9-33.104 9.387-33.152 9.734H-33.345L-33.056 11.703-32.766 11.896-32.814 12.012-32.429 12.283-32.284 12.477-32.622 13.209-32.525 13.326-32.284 13.867-31.319 15.914-31.463 16.377-31.174 16.57-29.919 19.891-29.678 20.471-29.533 20.742-29.292 21.127-29.147 21.244V21.592L-28.906 21.861-28.616 22.557-27.94 23.328-27.893 23.908-27.603 24.295-27.506 24.797-26.203 27.23-26.01 27.848-25.769 28.156-25.625 28.736-25.479 28.891-25.238 29.238-24.514 30.783-24.756 31.131-25.093 31.363-25.528 31.324-26.445 29.934-26.782 29.045-28.761 26.998-29.099 26.457-29.195 26.109-29.919 25.145-30.016 24.951-30.402 24.488-30.788 24.449-30.595 24.256-32.573 21.977-33.249 21.012-33.587 20.973-34.021 20.549-35.903 17.998-36.579 16.686-38.46 14.754-38.509 14.678-38.992 14.176-39.185 13.789V13.711L-41.018 11.703-41.26 11.857-41.597 11.818-41.501 11.664H-41.356L-41.453 11.279-41.742 10.814-41.887 10.545-42.418 10.352-42.755 10.119-42.9 9.926-43.045 9.502-45.023 6.992-44.927 6.836-46.52 5.602-46.665 5.176-47.533 4.52-47.967 4.48-48.208 4.365-48.595 3.322-48.98 3.129-49.077 2.896-49.463 2.318-50.139 1.971-50.091 1.699-50.38 1.469-50.67 1.121-52.311-.385H-52.503L-52.648-.656-53.034-1.119-53.324-.965-53.469-1.004-53.807-1.738-53.951-1.93H-54.241L-54.53-2.008-54.723-2.201-55.013-2.471-55.447-2.703-56.798-3.244H-56.991L-57.426-3.398-57.57-3.438-57.86-3.32-57.957-3.129-58.198-2.742-58.246-2.471-57.764-2.162-57.57-1.699-57.329-.771-56.943-.578-56.75-.115-56.123 .541-54.289 4.133-53.854 4.674-53.613 4.982-53.131 5.254-52.214 7.34-48.98 11.742-49.029 12.166-47.147 15.102H-46.954V15.449L-46.616 15.527-46.712 15.76-46.037 16.994H-45.796L-42.563 21.9-41.839 22.826-41.646 23.059-40.97 24.295-40.874 24.604-40.681 25.029-40.391 26.188-39.426 26.611-39.233 27.578-38.992 27.887-38.654 28.428-38.46 28.658-38.026 29.393-36.965 31.285-37.109 31.4-36.917 31.711-35.758 33.912-35.903 34.066-35.083 35.418-34.697 35.728-34.89 35.92-33.49 40.4V40.71L-33.394 40.864-33.49 41.945-33.394 42.293-33.49 42.757-33.297 43.066-34.118 44.92-35.083 45.615-36.096 45.77-37.737 45.653-38.509 45.035H-38.992L-39.233 44.959-39.522 44.804-40.536 44.494-40.632 44.34-41.066 43.992-41.549 43.761-41.935 43.645-42.611 43.259-42.755 43.066-43.286 42.68-46.278 40.98-46.809 40.748-47.195 40.555-47.581 40.4-47.726 40.015-48.836 39.705-50.332 38.624-50.428 38.354-50.863 38.006-51.442 37.504-51.731 37.35-53.613 36.074-53.854 35.92-53.951 35.766-54.82 35.303V34.994L-55.109 34.801-56.702 33.912-56.75 33.797-56.991 33.332-57.57 32.946-58.101 32.443-58.68 31.941-59.066 31.518-59.694 31.246-60.225 30.396-60.611 30.32V29.973 29.74L-61.093 29.354-62.3 28.891-62.444 28.969-64.857 26.418-65.967 24.99-66.595 23.754-66.836 23.715-67.463 23.059-67.608 22.943-67.946 22.596-68.284 21.436-69.104 20.316-69.2 19.313-69.442 18.85-69.538 18.693-69.924 18.385-70.358 17.844-70.407 17.652-70.841 17.42-70.6 15.064-70.986 12.553-71.372 12.438-71.469 12.67-72.337 12.979-72.53 13.402-72.771 13.596-73.254 14.832-73.351 15.025-73.543 15.141-73.833 15.295-74.605 16.184-74.75 17.342-74.219 17.459-74.026 17.652-74.509 17.883-73.881 19.197-71.131 23.02-70.6 23.367-70.503 23.676-69.731 24.256-68.525 25.646-68.477 25.686-67.946 26.148-67.608 26.535-65.919 28.775-65.05 29.471-64.712 29.818-64.133 30.359-63.892 30.551-63.072 31.518-57.812 35.92-57.522 36.074-57.426 36.229-57.136 36.461-57.04 36.693-56.702 36.809-56.123 37.195-54.386 38.393-53.324 39.551-51.731 40.4-51.249 40.671-50.718 40.98-50.139 41.443-49.705 41.676-49.222 41.984-45.506 44.264-45.12 44.379-44.348 44.842-43.093 45.461H-42.804L-42.321 45.692-42.176 45.809H-41.983L-41.887 45.963-37.688 47.701-37.64 47.816-37.158 47.894-37.254 47.701H-37.013L-37.109 48.01-36.82 48.087-36.53 48.125-36.337 48.203-35.758 48.435-33.008 49.168-31.174 48.975-30.064 48.512-29.967 48.396H-29.823V48.125L-29.629 48.049H-29.244L-28.906 47.623-28.472 47.508-28.423 47.16-28.037 46.928-27.699 45.963-27.458 45.461V45.268L-27.168 44.031-28.037 41.289-28.278 40.902-28.472 40.864-28.327 40.169-28.375 39.859-28.616 39.59-29.05 39.319-28.954 38.74-29.967 36.654-30.161 35.844-30.257 35.728-30.402 35.534-31.125 34.685-31.801 33.14-33.539 30.898-33.78 29.973-34.793 28.35-35.324 27.809-35.71 26.959-36 26.418-36.048 26.264-36.724 25.531-37.399 24.217-38.847 22.287-39.04 21.977-39.377 21.783V21.475L-43.286 15.604-43.576 15.373-43.865 14.832-44.3 14.252-44.782 13.75-44.927 13.441-47.919 9-48.208 8.42V8.305 8.189L-47.823 7.764-46.712 8.498-45.023 10.545-40.777 15.141-40.584 15.488-40.343 15.721-40.294 15.875-40.198 15.914-36.434 20.432-36.289 20.549-36 20.742-34.456 22.287-33.152 24.102-32.911 24.295-32.766 24.643-32.187 25.299-31.85 25.568-31.753 25.762-29.774 28.311-29.582 28.35-29.388 28.467-29.292 28.736-28.954 28.891-24.659 33.68-24.418 33.797-24.032 33.873-22.825 35.148-22.294 35.496-22.005 35.688-20.943 36.113-20.268 36.615-19.93 36.731-19.496 36.963-19.109 37.117-18.675 37.581-18 37.658-17.373 38.006-17.131 38.16H-16.89L-16.6 38.122-16.359 37.967-16.262 37.774V37.736L-16.311 36.731-16.793 35.844-17.035 35.109-17.179 34.646-17.373 34.375-18.337 32.715-18.675 32.367-18.724 32.213-18.772 31.98-18.82 31.633-19.062 31.17-22.439 25.414-22.536 25.299-22.729 24.836-22.922 24.217-23.115 23.947-23.26 23.676-24.273 21.398-24.756 20.742-24.852 20.395-25.238 19.969-25.287 19.854V19.699L-25.238 19.543-25.335 19.352-25.576 19.041-25.672 18.385-26.059 17.807-26.251 17.459-26.445 16.84-26.3 16.377-26.831 14.215-27.603 12.244-27.844 12.09V11.627L-27.94 9.502V8.961L-28.085 8.768-27.989 6.799-27.699 6.025-27.217 5.639-27.024 5.602-26.493 5.563-26.107 5.832-25.866 6.064-25.817 6.219-23.694 8.266-22.729 8.922-22.536 9.502-22.005 10.004-21.474 10.545-20.943 10.738-21.088 11.008-20.895 11.549-20.654 12.477-19.399 13.133-19.688 13.287-19.737 13.52-18.965 14.176-17.614 16.338-16.745 19.08-16.504 19.389-15.973 21.051-15.056 22.016-14.332 23.328-14.139 23.445-14.042 23.521-13.946 23.6H-13.753-13.56L-12.305 24.102-10.085 25.568-8.686 25.762-8.542 25.725-7.769 25.221V25.066L-7.625 24.758V19.273L-7.287 18.037-7.045 15.604-6.466 13.172-6.418 13.133-6.321 12.979-6.466 12.67-6.37 12.438-6.128 11.896-5.887 11.471-4.97 7.918-4.343 7.184-3.667 5.137-2.702 3.477-1.737 2.357-1.689 1.816-1.447 1.777-1.351 1.043-1.013 .773-.482 .348-.29 .232Z" fill="#ffffff"/>
<g clip-path="url(#clip_3)">
<path transform="matrix(1,0,0,-1,98.68409,53.2658)" d="M0 0-.281-2.466C-.736-2.2-1.205-2.003-1.688-1.872-2.17-1.743-2.668-1.678-3.179-1.678-4.39-1.678-5.353-2.021-6.069-2.708-6.785-3.394-7.143-4.315-7.143-5.473-7.143-6.636-6.778-7.562-6.047-8.251-5.317-8.94-4.344-9.284-3.128-9.284-2.651-9.284-2.164-9.228-1.666-9.114-1.169-9.001-.667-8.831-.162-8.604L.034-11.253C-.545-11.407-1.125-11.524-1.705-11.602-2.284-11.679-2.87-11.718-3.46-11.718-5.66-11.718-7.373-11.169-8.6-10.069-9.828-8.971-10.441-7.438-10.441-5.473-10.441-3.597-9.836-2.106-8.626-1.005-7.416 .097-5.773 .647-3.699 .647-3.006 .647-2.348 .594-1.726 .485-1.104 .378-.528 .216 0 0" fill="#231f20"/>
<path transform="matrix(1,0,0,-1,106.692897,55.541208)" d="M0 0-1.568-4.427H1.517ZM-1.884 2.632H2.012L6.597-9.169H3.145L2.284-6.669H-2.378L-3.282-9.169H-6.478Z" fill="#231f20"/>
<path transform="matrix(1,0,0,-1,123.131298,53.042108)" d="M0 0-.238-2.433C-.732-2.229-1.207-2.074-1.662-1.972-2.117-1.869-2.557-1.818-2.982-1.818-3.637-1.818-4.146-1.92-4.513-2.121-4.879-2.323-5.063-2.602-5.063-2.956-5.063-3.205-4.969-3.422-4.782-3.607-4.594-3.793-4.313-3.947-3.938-4.068-3.813-4.107-3.634-4.163-3.4-4.234-2.014-4.672-1.094-5.057-.639-5.389-.213-5.711 .1-6.077 .299-6.49 .498-6.902 .597-7.385 .597-7.938 .597-9.24 .154-10.232-.732-10.916-1.619-11.6-2.904-11.941-4.585-11.941-5.194-11.941-5.803-11.9-6.414-11.816-7.025-11.734-7.631-11.609-8.234-11.443L-7.961-8.811C-7.393-9.061-6.84-9.25-6.303-9.379-5.766-9.51-5.259-9.574-4.782-9.574-4.145-9.574-3.643-9.459-3.273-9.227-2.904-8.993-2.719-8.678-2.719-8.279-2.719-7.787-3.311-7.341-4.492-6.942-4.776-6.848-4.995-6.773-5.148-6.718-6.302-6.314-7.125-5.845-7.62-5.311-8.114-4.775-8.361-4.094-8.361-3.264-8.361-2.078-7.927-1.168-7.058-.531-6.188 .105-4.941 .424-3.315 .424-2.719 .424-2.145 .39-1.594 .32-1.043 .251-.512 .145 0 0" fill="#231f20"/>
<path transform="matrix(1,0,0,-1,131.65189,55.541208)" d="M0 0-1.568-4.427H1.517ZM-1.884 2.632H2.012L6.597-9.169H3.146L2.284-6.669H-2.378L-3.282-9.169H-6.478Z" fill="#231f20"/>
<path transform="matrix(1,0,0,-1,150.75049,53.175004)" d="M0 0-.281-2.449C-.775-2.178-1.293-1.975-1.832-1.839-2.373-1.703-2.927-1.636-3.494-1.636-4.818-1.636-5.863-1.992-6.627-2.707-7.392-3.421-7.773-4.396-7.773-5.63-7.773-6.82-7.433-7.768-6.751-8.471-6.068-9.174-5.151-9.525-3.998-9.525-3.754-9.525-3.529-9.514-3.324-9.492-3.119-9.47-2.927-9.437-2.744-9.393V-6.926H-4.611V-4.7H.256V-11.277C-.381-11.455-1.043-11.588-1.73-11.676-2.418-11.764-3.123-11.809-3.844-11.809-6.203-11.809-7.994-11.291-9.219-10.256-10.443-9.221-11.055-7.709-11.055-5.721-11.055-3.734-10.435-2.188-9.193-1.084-7.951 .021-6.209 .573-3.963 .573-3.293 .573-2.627 .525-1.965 .428-1.303 .331-.648 .188 0 0" fill="#231f20"/>
<path transform="matrix(1,0,0,-1,157.53171,54.985506)" d="M0 0V-3.022H1.134C1.832-3.022 2.357-2.898 2.706-2.652 3.056-2.406 3.23-2.037 3.23-1.544 3.23-1.013 3.035-.622 2.646-.373 2.258-.124 1.643 0 .801 0ZM-3.162 2.076H1.653C3.256 2.076 4.445 1.823 5.221 1.316 5.996 .811 6.385 .039 6.385-.996 6.385-1.76 6.18-2.389 5.771-2.881 5.361-3.374 4.77-3.703 3.998-3.869 4.634-4.097 5.145-4.741 5.531-5.805V-5.813L6.98-9.725H3.613L2.549-6.494C2.378-5.973 2.145-5.613 1.85-5.414 1.555-5.215 1.094-5.115 .469-5.115H0V-9.725H-3.162Z" fill="#231f20"/>
<path transform="matrix(1,0,0,-1,171.9331,55.541208)" d="M0 0-1.568-4.427H1.517ZM-1.884 2.632H2.012L6.597-9.169H3.146L2.284-6.669H-2.378L-3.282-9.169H-6.478Z" fill="#231f20"/>
<path transform="matrix(1,0,0,-1,180.32572,52.9093)" d="M0 0H4.031L7.543-7.075C7.663-7.313 7.802-7.645 7.961-8.067 8.12-8.49 8.296-9.01 8.489-9.625 8.388-9.043 8.312-8.509 8.263-8.021 8.215-7.535 8.19-7.089 8.19-6.685V0H11.106V-11.801H7.091L3.443-4.467C3.272-4.13 3.116-3.763 2.975-3.367 2.833-2.971 2.702-2.541 2.583-2.076 2.696-2.779 2.78-3.426 2.834-4.015 2.888-4.604 2.915-5.123 2.915-5.572V-11.801H0Z" fill="#231f20"/>
<path transform="matrix(1,0,0,-1,198.07669,55.184709)" d="M0 0V-7.158H1.398C2.535-7.158 3.412-6.846 4.031-6.22 4.651-5.594 4.961-4.705 4.961-3.554 4.961-2.414 4.639-1.535 3.994-.922 3.349-.307 2.426 0 1.228 0ZM-3.247 2.275H.998C2.105 2.275 3.033 2.208 3.78 2.072 4.527 1.938 5.137 1.729 5.609 1.445 6.489 .897 7.154 .204 7.604-.635 8.053-1.474 8.277-2.447 8.277-3.554 8.277-4.771 8.042-5.807 7.573-6.66 7.104-7.513 6.391-8.213 5.43-8.761 4.953-9.027 4.342-9.221 3.598-9.342 2.853-9.464 1.853-9.525 .597-9.525H-3.247Z" fill="#231f20"/>
<path transform="matrix(1,0,0,-1,209.21341,52.9093)" d="M0 0H8.413V-2.209H3.23V-4.592H8.123V-6.834H3.23V-9.525H8.609V-11.801H0Z" fill="#231f20"/>
<path transform="matrix(1,0,0,-1,91.374,68.835109)" d="M0 0-1.807-4.412H1.744ZM-.443 .654H.477L3.676-7.213H2.864L2.011-5.07H-2.108L-2.955-7.213H-3.722Z" fill="#231f20"/>
<path transform="matrix(1,0,0,-1,98.5801,70.85461)" d="M0 0C-.507 0-.912-.205-1.213-.615-1.514-1.025-1.665-1.584-1.665-2.293-1.665-3.006-1.513-3.568-1.21-3.984-.907-4.399-.496-4.607 .023-4.607 .549-4.607 .976-4.398 1.301-3.981 1.627-3.564 1.79-3.013 1.79-2.326 1.79-1.6 1.631-1.029 1.313-.618 .995-.207 .557 0 0 0M1.858-.604V.453H2.523V-4.59C2.523-5.627 2.305-6.403 1.87-6.918 1.434-7.434 .779-7.691-.096-7.691-.43-7.691-.753-7.663-1.065-7.607-1.378-7.553-1.67-7.469-1.943-7.358L-1.886-6.6C-1.602-6.752-1.313-6.865-1.017-6.94-.722-7.016-.426-7.055-.13-7.055 .495-7.055 .98-6.852 1.327-6.445 1.674-6.039 1.847-5.467 1.847-4.729V-3.992C1.631-4.391 1.358-4.695 1.029-4.903 .699-5.111 .328-5.216-.085-5.216-.793-5.216-1.365-4.951-1.798-4.422-2.232-3.893-2.449-3.189-2.449-2.314-2.449-1.43-2.233-.727-1.801-.205-1.369 .314-.79 .575-.063 .575 .373 .575 .755 .476 1.083 .276 1.41 .076 1.669-.217 1.858-.604" fill="#231f20"/>
<path transform="matrix(1,0,0,-1,107.24659,72.8263)" d="M0 0C-.042 .632-.203 1.116-.483 1.453-.763 1.791-1.146 1.96-1.631 1.96-2.101 1.96-2.493 1.784-2.807 1.431-3.122 1.079-3.307 .602-3.364 0ZM.71-.116V-.526H-3.387C-3.364-1.242-3.173-1.791-2.813-2.173-2.453-2.556-1.945-2.746-1.29-2.746-1.032-2.746-.774-2.712-.514-2.644-.255-2.575 .006-2.474 .267-2.337V-3.04C.013-3.146-.248-3.227-.517-3.28-.786-3.334-1.066-3.36-1.358-3.36-2.214-3.36-2.885-3.097-3.37-2.569-3.854-2.041-4.097-1.307-4.097-.365-4.097 .513-3.862 1.22-3.392 1.755-2.923 2.29-2.307 2.558-1.545 2.558-.856 2.558-.308 2.317 .1 1.838 .507 1.358 .71 .706 .71-.116" fill="#231f20"/>
<path transform="matrix(1,0,0,-1,114.34519,72.5988)" d="M0 0V-3.449H-.733V-.172C-.733 .463-.846 .93-1.071 1.229-1.296 1.527-1.65 1.678-2.131 1.678-2.665 1.678-3.083 1.484-3.387 1.099-3.69 .713-3.841 .175-3.841-.516V-3.449H-4.574V2.197H-3.898V1.129C-3.686 1.527-3.416 1.826-3.088 2.023-2.761 2.221-2.372 2.319-1.92 2.319-1.295 2.319-.819 2.121-.492 1.725-.164 1.327 0 .752 0 0" fill="#231f20"/>
<path transform="matrix(1,0,0,-1,116.3462,70.401508)" d="M0 0H4.16V-.647L.676-5.043H4.16V-5.646H-.159V-5.021L3.307-.614H0Z" fill="#231f20"/>
<path transform="matrix(1,0,0,-1,-95.3335,139.798)" d="M217.886 69.396H218.619V63.750005H217.886ZM217.829 72.037H218.664V71.119H217.829Z" fill="#231f20"/>
<path transform="matrix(1,0,0,-1,128.12741,73.1808)" d="M0 0C-.682 0-1.206-.11-1.571-.332-1.938-.553-2.119-.869-2.119-1.279-2.119-1.604-2.013-1.867-1.799-2.068-1.585-2.27-1.304-2.369-.955-2.369-.417-2.369 .012-2.203 .332-1.871 .652-1.539 .813-1.089 .813-.52V0ZM1.534 .736V-2.867H.887V-1.893C.67-2.24 .398-2.502 .07-2.68-.257-2.856-.629-2.945-1.046-2.945-1.603-2.945-2.049-2.797-2.385-2.502-2.719-2.207-2.887-1.814-2.887-1.323-2.887-.722-2.629-.254-2.114 .08-1.6 .414-.871 .582 .068 .582H.813C.813 .604 .814 .635 .818 .676 .822 .717 .824 .748 .824 .77 .824 1.238 .703 1.605 .463 1.871 .223 2.137-.11 2.27-.534 2.27-.83 2.27-1.114 2.231-1.387 2.154-1.66 2.076-1.931 1.957-2.199 1.794V2.486C-1.912 2.623-1.621 2.727-1.327 2.796-1.033 2.866-.742 2.901-.455 2.901 .208 2.901 .705 2.721 1.037 2.359 1.368 1.997 1.534 1.456 1.534 .736" fill="#231f20"/>
<path transform="matrix(1,0,0,-1,138.40671,70.8664)" d="M0 0C-.508 0-.912-.207-1.211-.623-1.51-1.038-1.66-1.602-1.66-2.314-1.66-3.041-1.51-3.613-1.211-4.027-.912-4.443-.504-4.65 .011-4.65 .541-4.65 .971-4.44 1.301-4.02 1.631-3.599 1.795-3.041 1.795-2.348 1.795-1.613 1.636-1.038 1.318-.623 1-.207 .561 0 0 0M1.795 3.267H2.527V-5.182H1.852V-4.025C1.636-4.432 1.359-4.738 1.021-4.947 .686-5.155 .295-5.26-.148-5.26-.822-5.26-1.376-4.984-1.808-4.432-2.24-3.881-2.455-3.163-2.455-2.281-2.455-1.414-2.238-.719-1.802-.197-1.366 .326-.789 .587-.068 .587 .336 .587 .699 .496 1.02 .313 1.34 .13 1.598-.133 1.795-.477Z" fill="#231f20"/>
<path transform="matrix(1,0,0,-1,-95.3335,139.798)" d="M238.78 69.396H239.513V63.750005H238.78ZM238.724 72.037H239.559V71.119H238.724Z" fill="#231f20"/>
<path transform="matrix(1,0,0,-1,153.33249,73.1808)" d="M0 0C-.682 0-1.205-.11-1.57-.332-1.936-.553-2.119-.869-2.119-1.279-2.119-1.604-2.012-1.867-1.798-2.068-1.584-2.27-1.303-2.369-.954-2.369-.416-2.369 .014-2.203 .333-1.871 .653-1.539 .813-1.089 .813-.52V0ZM1.535 .736V-2.867H.887V-1.893C.672-2.24 .399-2.502 .072-2.68-.256-2.856-.629-2.945-1.045-2.945-1.602-2.945-2.048-2.797-2.383-2.502-2.719-2.207-2.886-1.814-2.886-1.323-2.886-.722-2.629-.254-2.113 .08-1.598 .414-.871 .582 .068 .582H.813C.813 .604 .814 .635 .818 .676 .822 .717 .824 .748 .824 .77 .824 1.238 .705 1.605 .464 1.871 .223 2.137-.109 2.27-.533 2.27-.829 2.27-1.113 2.231-1.386 2.154-1.658 2.076-1.93 1.957-2.198 1.794V2.486C-1.91 2.623-1.619 2.727-1.326 2.796-1.033 2.866-.742 2.901-.454 2.901 .209 2.901 .706 2.721 1.037 2.359 1.369 1.997 1.535 1.456 1.535 .736" fill="#231f20"/>
<path transform="matrix(1,0,0,-1,160.1763,70.5285)" d="M0 0V-.664C-.216-.572-.437-.502-.662-.454-.888-.406-1.117-.383-1.353-.383-1.717-.383-2.009-.458-2.23-.609-2.452-.761-2.563-.958-2.563-1.201-2.563-1.537-2.188-1.873-1.438-2.209-1.361-2.246-1.307-2.271-1.273-2.287-.686-2.557-.28-2.815-.057-3.064 .166-3.314 .278-3.613 .278-3.965 .278-4.459 .088-4.854-.293-5.146-.674-5.439-1.186-5.586-1.83-5.586-2.113-5.586-2.384-5.564-2.64-5.52-2.896-5.476-3.133-5.408-3.353-5.314V-4.646C-3.106-4.764-2.859-4.852-2.611-4.911-2.363-4.971-2.117-5-1.875-5-1.463-5-1.128-4.908-.873-4.726-.617-4.543-.488-4.31-.488-4.025-.488-3.785-.563-3.583-.713-3.419-.863-3.255-1.235-3.036-1.83-2.763-2.421-2.486-2.816-2.236-3.018-2.013-3.219-1.789-3.318-1.52-3.318-1.201-3.318-.792-3.145-.457-2.796-.197-2.447 .063-1.992 .193-1.432 .193-1.171 .193-.92 .178-.682 .146-.443 .115-.216 .066 0 0" fill="#231f20"/>
<path transform="matrix(1,0,0,-1,165.23972,70.5285)" d="M0 0V-.664C-.216-.572-.437-.502-.662-.454-.888-.406-1.118-.383-1.353-.383-1.716-.383-2.009-.458-2.23-.609-2.452-.761-2.563-.958-2.563-1.201-2.563-1.537-2.188-1.873-1.438-2.209-1.362-2.246-1.308-2.271-1.272-2.287-.686-2.557-.28-2.815-.058-3.064 .167-3.314 .278-3.613 .278-3.965 .278-4.459 .088-4.854-.293-5.146-.673-5.439-1.187-5.586-1.829-5.586-2.114-5.586-2.384-5.564-2.64-5.52-2.896-5.476-3.133-5.408-3.353-5.314V-4.646C-3.106-4.764-2.859-4.852-2.611-4.911-2.363-4.971-2.118-5-1.876-5-1.462-5-1.128-4.908-.872-4.726-.616-4.543-.489-4.31-.489-4.025-.489-3.785-.563-3.583-.714-3.419-.862-3.255-1.235-3.036-1.829-2.763-2.421-2.486-2.817-2.236-3.018-2.013-3.218-1.789-3.319-1.52-3.319-1.201-3.319-.792-3.145-.457-2.796-.197-2.447 .063-1.993 .193-1.433 .193-1.171 .193-.921 .178-.683 .146-.443 .115-.216 .066 0 0" fill="#231f20"/>
<path transform="matrix(1,0,0,-1,-95.3335,139.798)" d="M262.717 69.396H263.449V63.750005H262.717ZM262.66 72.037H263.49403V71.119H262.66Z" fill="#231f20"/>
<path transform="matrix(1,0,0,-1,174.42432,70.5734)" d="M0 0-.057-.714C-.246-.614-.449-.541-.666-.492-.881-.444-1.118-.42-1.375-.42-1.997-.42-2.504-.627-2.898-1.041-3.293-1.453-3.49-1.99-3.49-2.651-3.49-3.338-3.303-3.883-2.93-4.285-2.557-4.688-2.054-4.889-1.421-4.889-1.201-4.889-.979-4.862-.75-4.811-.523-4.76-.289-4.682-.046-4.578L.021-5.281C-.209-5.37-.449-5.436-.699-5.479-.949-5.52-1.205-5.541-1.467-5.541-2.312-5.541-2.99-5.277-3.504-4.75-4.018-4.223-4.273-3.52-4.273-2.641-4.273-1.791-4.003-1.104-3.461-.575-2.92-.047-2.213 .217-1.342 .217-1.096 .217-.862 .199-.643 .164-.423 .129-.209 .074 0 0" fill="#231f20"/>
<path transform="matrix(1,0,0,-1,176.18109,70.401508)" d="M0 0H.722V-3.232C.722-3.868 .834-4.335 1.06-4.634 1.285-4.933 1.636-5.082 2.114-5.082 2.667-5.082 3.091-4.877 3.384-4.465 3.677-4.053 3.824-3.46 3.824-2.686V0H4.563V-5.646H3.887V-4.534C3.675-4.933 3.404-5.23 3.077-5.428 2.749-5.626 2.36-5.725 1.909-5.725 1.284-5.725 .81-5.527 .485-5.135 .161-4.742 0-4.163 0-3.399Z" fill="#231f20"/>
<path transform="matrix(1,0,0,-1,186.0239,70.356609)" d="M0 0V-.726C-.084-.707-.158-.693-.225-.684-.291-.675-.351-.67-.404-.67-.893-.67-1.275-.85-1.551-1.207-1.828-1.565-1.967-2.063-1.967-2.697V-5.691H-2.699V-.045H-2.023V-1.234C-1.879-.833-1.663-.521-1.375-.299-1.088-.078-.752 .033-.369 .033-.316 .033-.261 .029-.202 .024-.143 .02-.076 .011 0 0" fill="#231f20"/>
<path transform="matrix(1,0,0,-1,190.06491,73.1808)" d="M0 0C-.682 0-1.205-.11-1.57-.332-1.937-.553-2.119-.869-2.119-1.279-2.119-1.604-2.012-1.867-1.799-2.068-1.584-2.27-1.303-2.369-.955-2.369-.416-2.369 .013-2.203 .332-1.871 .652-1.539 .813-1.089 .813-.52V0ZM1.535 .736V-2.867H.887V-1.893C.671-2.24 .398-2.502 .071-2.68-.256-2.856-.629-2.945-1.045-2.945-1.602-2.945-2.049-2.797-2.384-2.502-2.719-2.207-2.887-1.814-2.887-1.323-2.887-.722-2.629-.254-2.113 .08-1.599 .414-.871 .582 .068 .582H.813C.813 .604 .814 .635 .818 .676 .822 .717 .824 .748 .824 .77 .824 1.238 .704 1.605 .463 1.871 .223 2.137-.109 2.27-.533 2.27-.83 2.27-1.113 2.231-1.387 2.154-1.659 2.076-1.93 1.957-2.199 1.794V2.486C-1.911 2.623-1.62 2.727-1.326 2.796-1.033 2.866-.742 2.901-.455 2.901 .209 2.901 .705 2.721 1.037 2.359 1.369 1.997 1.535 1.456 1.535 .736" fill="#231f20"/>
<path transform="matrix(1,0,0,-1,193.61182,70.401508)" d="M0 0H4.16V-.647L.676-5.043H4.16V-5.646H-.159V-5.021L3.307-.614H0Z" fill="#231f20"/>
<path transform="matrix(1,0,0,-1,-95.3335,139.798)" d="M295.151 69.396H295.884V63.750005H295.151ZM295.095 72.037H295.93V71.119H295.095Z" fill="#231f20"/>
<path transform="matrix(1,0,0,-1,205.2739,70.878108)" d="M0 0C-.568 0-1.028-.213-1.379-.642-1.729-1.07-1.904-1.635-1.904-2.336-1.904-3.033-1.729-3.598-1.375-4.027-1.023-4.457-.564-4.672 0-4.672 .583-4.672 1.049-4.46 1.397-4.035 1.746-3.611 1.92-3.045 1.92-2.336 1.92-1.623 1.746-1.057 1.397-.633 1.049-.211 .583 0 0 0M0 .599C.822 .599 1.475 .334 1.96-.195 2.445-.726 2.688-1.442 2.688-2.347 2.688-3.251 2.443-3.971 1.957-4.506 1.471-5.041 .818-5.309 0-5.309-.814-5.309-1.467-5.041-1.955-4.506-2.443-3.971-2.688-3.251-2.688-2.347-2.688-1.446-2.445-.73-1.958-.199-1.471 .333-.818 .599 0 .599" fill="#231f20"/>
<path transform="matrix(1,0,0,-1,214.64499,72.5988)" d="M0 0V-3.449H-.732V-.172C-.732 .463-.846 .93-1.071 1.229-1.297 1.527-1.65 1.678-2.131 1.678-2.665 1.678-3.084 1.484-3.387 1.099-3.689 .713-3.842 .175-3.842-.516V-3.449H-4.574V2.197H-3.898V1.129C-3.686 1.527-3.416 1.826-3.088 2.023-2.761 2.221-2.371 2.319-1.92 2.319-1.295 2.319-.819 2.121-.492 1.725-.164 1.327 0 .752 0 0" fill="#231f20"/>
<path transform="matrix(1,0,0,-1,-95.3335,139.798)" d="M312.354 69.396H313.087V63.750005H312.354ZM312.298 72.037H313.133V71.119H312.298Z" fill="#231f20"/>
</g>
</g>
</g>
</svg>
