<svg xmlns="http://www.w3.org/2000/svg" fill="red" xmlns:xlink="http://www.w3.org/1999/xlink" version="1.1" id="svg-inject" x="0px" y="0px" viewBox="0 0 90 90" style="enable-background:new 0 0 90 90;" xml:space="preserve" data-inject-url="https://www.mariozorzetto.com/wp-content/themes/mz-theme/media/img/logo.svg">
<style type="text/css">
	.st0{fill:#FF0000;}
	.st1{fill-rule:evenodd;clip-rule:evenodd;fill:#FF0000;}
</style>
<g>
	<g>
		<path class="st0" d="M90,90H0V0h90V90z M2,88h86V2H2V88z"></path>
	</g>
	<g>
		<path class="st0" d="M9.7,64H7.6V53.5h2.2V64z"></path>
		<path class="st0" d="M20.6,53.5h3.2V64h-2.1v-7.1c0-0.2,0-0.5,0-0.9c0-0.4,0-0.7,0-0.9l-2,8.8h-2.1l-2-8.8c0,0.2,0,0.5,0,0.9    c0,0.4,0,0.7,0,0.9V64h-2.1V53.5h3.2l1.9,8.3L20.6,53.5z"></path>
		<path class="st0" d="M34.6,59.5C34,60,33.2,60.3,32,60.3h-2.2V64h-2.2V53.5h4.5c1,0,1.9,0.3,2.5,0.8c0.6,0.5,0.9,1.4,0.9,2.5    C35.6,58.1,35.3,59,34.6,59.5z M33,55.7c-0.3-0.2-0.7-0.4-1.2-0.4h-2v3.1h2c0.5,0,0.9-0.1,1.2-0.4c0.3-0.3,0.4-0.7,0.4-1.2    C33.4,56.3,33.2,55.9,33,55.7z"></path>
		<path class="st0" d="M41.1,64h-2.2V53.5h2.2V64z"></path>
		<path class="st0" d="M48,53.5h2.5L54.2,64h-2.4l-0.7-2.2h-3.9L46.5,64h-2.3L48,53.5z M47.8,60.1h2.7l-1.3-4.1L47.8,60.1z"></path>
		<path class="st0" d="M57.3,53.5h2.3l4.2,7.3v-7.3h2.1V64h-2.2l-4.3-7.5V64h-2.1V53.5z"></path>
		<path class="st0" d="M77.4,53.5v1.9h-3.2V64H72v-8.7h-3.2v-1.9H77.4z"></path>
		<path class="st0" d="M82.4,64h-2.2V53.5h2.2V64z"></path>
	</g>
	<g>
		<path class="st1" d="M6.9,45.4h13.3l3-16.7L26,45.4h17.1l3-16.7l2.8,16.7h34.3V34.8H72l11-16.9V7.4H38.4l-3,16.7L32.7,7.4H13.6    L6.9,45.4z M59,28.7l-2-10.7h9.2L59,28.7z"></path>
	</g>
	<rect x="7.2" y="72.1" class="st0" width="75.5" height="10.5"></rect>
</g>
</svg>